%TF.GenerationSoftware,Altium Limited,Altium Designer,24.6.1 (21)*%
G04 Layer_Color=32896*
%FSLAX45Y45*%
%MOMM*%
%TF.SameCoordinates,9A433DDD-85E4-4EE4-B99C-1E68303A8431*%
%TF.FilePolarity,Positive*%
%TF.FileFunction,Legend,Bot*%
%TF.Part,Single*%
G01*
G75*
%TA.AperFunction,NonConductor*%
%ADD27C,0.20000*%
%ADD28C,0.25000*%
%ADD30C,0.25400*%
D27*
X4045500Y3165000D02*
Y3435002D01*
X2954499Y3165000D02*
X4045500D01*
X2954499D02*
Y3435002D01*
X4045500D01*
X3308499Y2285001D02*
X3891500D01*
X3308499Y2014999D02*
Y2285001D01*
Y2014999D02*
X3891500D01*
Y2285001D01*
X15254500Y3865003D02*
X16345502D01*
Y4135000D01*
X15254500D02*
X16345502D01*
X15254500Y3865003D02*
Y4135000D01*
Y3435002D02*
X16345502D01*
X15254500Y3165000D02*
Y3435002D01*
Y3165000D02*
X16345502D01*
Y3435002D01*
X11154498D02*
X12245499D01*
X11154498Y3165000D02*
Y3435002D01*
Y3165000D02*
X12245499D01*
Y3435002D01*
X11154498Y3865003D02*
X12245499D01*
Y4135000D01*
X11154498D02*
X12245499D01*
X11154498Y3865003D02*
Y4135000D01*
X7054501Y3865003D02*
X8145502D01*
Y4135000D01*
X7054501D02*
X8145502D01*
X7054501Y3865003D02*
Y4135000D01*
Y3435002D02*
X8145502D01*
X7054501Y3165000D02*
Y3435002D01*
Y3165000D02*
X8145502D01*
Y3435002D01*
X2954499Y3865003D02*
X4045500D01*
Y4135000D01*
X2954499D02*
X4045500D01*
X2954499Y3865003D02*
Y4135000D01*
X15408501Y5014998D02*
Y5285000D01*
X15991501D01*
Y5014998D02*
Y5285000D01*
X15408501Y5014998D02*
X15991501D01*
X11308498D02*
Y5285000D01*
X11891499D01*
Y5014998D02*
Y5285000D01*
X11308498Y5014998D02*
X11891499D01*
X7208501D02*
Y5285000D01*
X7791502D01*
Y5014998D02*
Y5285000D01*
X7208501Y5014998D02*
X7791502D01*
X3108499D02*
Y5285000D01*
X3691500D01*
Y5014998D02*
Y5285000D01*
X3108499Y5014998D02*
X3691500D01*
X16191501Y2014999D02*
Y2285001D01*
X15608501Y2014999D02*
X16191501D01*
X15608501D02*
Y2285001D01*
X16191501D01*
X12091499Y2014999D02*
Y2285001D01*
X11508498Y2014999D02*
X12091499D01*
X11508498D02*
Y2285001D01*
X12091499D01*
X7991502Y2014999D02*
Y2285001D01*
X7408501Y2014999D02*
X7991502D01*
X7408501D02*
Y2285001D01*
X7991502D01*
D28*
X4106500Y3300000D02*
G03*
X4106500Y3300000I-12500J0D01*
G01*
X3952500Y2150000D02*
G03*
X3952500Y2150000I-12500J0D01*
G01*
X15218500Y4000000D02*
G03*
X15218500Y4000000I-12500J0D01*
G01*
X16406500Y3300000D02*
G03*
X16406500Y3300000I-12500J0D01*
G01*
X12306500D02*
G03*
X12306500Y3300000I-12500J0D01*
G01*
X11118500Y4000000D02*
G03*
X11118500Y4000000I-12500J0D01*
G01*
X7018500D02*
G03*
X7018500Y4000000I-12500J0D01*
G01*
X8206500Y3300000D02*
G03*
X8206500Y3300000I-12500J0D01*
G01*
X2918500Y4000000D02*
G03*
X2918500Y4000000I-12500J0D01*
G01*
X15372501Y5150000D02*
G03*
X15372501Y5150000I-12500J0D01*
G01*
X11272500D02*
G03*
X11272500Y5150000I-12500J0D01*
G01*
X7172500D02*
G03*
X7172500Y5150000I-12500J0D01*
G01*
X3072500D02*
G03*
X3072500Y5150000I-12500J0D01*
G01*
X16252499Y2150000D02*
G03*
X16252499Y2150000I-12500J0D01*
G01*
X12152500D02*
G03*
X12152500Y2150000I-12500J0D01*
G01*
X8052500D02*
G03*
X8052500Y2150000I-12500J0D01*
G01*
D30*
X3500000Y3676175D02*
X3550784D01*
X3525392D01*
Y3549216D01*
X3550784Y3523825D01*
X3576175D01*
X3601567Y3549216D01*
X3449216Y3523825D02*
X3398433D01*
X3423824D01*
Y3676175D01*
X3449216Y3650783D01*
X15825392Y4376175D02*
X15876175D01*
X15850783D01*
Y4249216D01*
X15876175Y4223824D01*
X15901567D01*
X15926959Y4249216D01*
X15774608Y4350783D02*
X15749216Y4376175D01*
X15698433D01*
X15673041Y4350783D01*
Y4325392D01*
X15698433Y4300000D01*
X15673041Y4274608D01*
Y4249216D01*
X15698433Y4223824D01*
X15749216D01*
X15774608Y4249216D01*
Y4274608D01*
X15749216Y4300000D01*
X15774608Y4325392D01*
Y4350783D01*
X15749216Y4300000D02*
X15698433D01*
X11725392Y4376175D02*
X11776175D01*
X11750783D01*
Y4249216D01*
X11776175Y4223824D01*
X11801567D01*
X11826959Y4249216D01*
X11674608Y4376175D02*
X11573041D01*
Y4350783D01*
X11674608Y4249216D01*
Y4223824D01*
X7625392Y4376175D02*
X7676175D01*
X7650784D01*
Y4249216D01*
X7676175Y4223824D01*
X7701567D01*
X7726959Y4249216D01*
X7473041Y4376175D02*
X7523825Y4350783D01*
X7574608Y4300000D01*
Y4249216D01*
X7549216Y4223824D01*
X7498433D01*
X7473041Y4249216D01*
Y4274608D01*
X7498433Y4300000D01*
X7574608D01*
X3525392Y4376175D02*
X3576175D01*
X3550784D01*
Y4249216D01*
X3576175Y4223824D01*
X3601567D01*
X3626959Y4249216D01*
X3373041Y4376175D02*
X3474608D01*
Y4300000D01*
X3423825Y4325392D01*
X3398433D01*
X3373041Y4300000D01*
Y4249216D01*
X3398433Y4223824D01*
X3449216D01*
X3474608Y4249216D01*
X15825392Y3676175D02*
X15876175D01*
X15850783D01*
Y3549216D01*
X15876175Y3523825D01*
X15901567D01*
X15926959Y3549216D01*
X15698433Y3523825D02*
Y3676175D01*
X15774608Y3600000D01*
X15673041D01*
X11725392Y3676175D02*
X11776175D01*
X11750783D01*
Y3549216D01*
X11776175Y3523825D01*
X11801567D01*
X11826959Y3549216D01*
X11674608Y3650783D02*
X11649216Y3676175D01*
X11598433D01*
X11573041Y3650783D01*
Y3625392D01*
X11598433Y3600000D01*
X11623825D01*
X11598433D01*
X11573041Y3574608D01*
Y3549216D01*
X11598433Y3523825D01*
X11649216D01*
X11674608Y3549216D01*
X7625392Y3676175D02*
X7676175D01*
X7650784D01*
Y3549216D01*
X7676175Y3523825D01*
X7701567D01*
X7726959Y3549216D01*
X7473041Y3523825D02*
X7574608D01*
X7473041Y3625392D01*
Y3650783D01*
X7498433Y3676175D01*
X7549216D01*
X7574608Y3650783D01*
X15801567Y5538871D02*
X15852351D01*
X15826959D01*
Y5411912D01*
X15852351Y5386521D01*
X15877742D01*
X15903134Y5411912D01*
X15750784Y5361129D02*
X15649216D01*
X15598433Y5513479D02*
X15573041Y5538871D01*
X15522258D01*
X15496866Y5513479D01*
Y5488088D01*
X15522258Y5462696D01*
X15496866Y5437304D01*
Y5411912D01*
X15522258Y5386521D01*
X15573041D01*
X15598433Y5411912D01*
Y5437304D01*
X15573041Y5462696D01*
X15598433Y5488088D01*
Y5513479D01*
X15573041Y5462696D02*
X15522258D01*
X11701567Y5538871D02*
X11752351D01*
X11726959D01*
Y5411912D01*
X11752351Y5386521D01*
X11777742D01*
X11803134Y5411912D01*
X11650783Y5361129D02*
X11549216D01*
X11498433Y5538871D02*
X11396865D01*
Y5513479D01*
X11498433Y5411912D01*
Y5386521D01*
X7601567Y5538871D02*
X7652351D01*
X7626959D01*
Y5411912D01*
X7652351Y5386521D01*
X7677742D01*
X7703134Y5411912D01*
X7550783Y5361129D02*
X7449216D01*
X7296866Y5538871D02*
X7347649Y5513479D01*
X7398433Y5462696D01*
Y5411912D01*
X7373041Y5386521D01*
X7322257D01*
X7296866Y5411912D01*
Y5437304D01*
X7322257Y5462696D01*
X7398433D01*
X3501567Y5538871D02*
X3552351D01*
X3526959D01*
Y5411912D01*
X3552351Y5386521D01*
X3577742D01*
X3603134Y5411912D01*
X3450784Y5361129D02*
X3349216D01*
X3196866Y5538871D02*
X3298433D01*
Y5462696D01*
X3247649Y5488088D01*
X3222257D01*
X3196866Y5462696D01*
Y5411912D01*
X3222257Y5386521D01*
X3273041D01*
X3298433Y5411912D01*
X16001567Y2538871D02*
X16052351D01*
X16026959D01*
Y2411912D01*
X16052351Y2386520D01*
X16077742D01*
X16103134Y2411912D01*
X15950783Y2361129D02*
X15849216D01*
X15722256Y2386520D02*
Y2538871D01*
X15798433Y2462696D01*
X15696864D01*
X11901567Y2538871D02*
X11952351D01*
X11926959D01*
Y2411912D01*
X11952351Y2386520D01*
X11977742D01*
X12003134Y2411912D01*
X11850784Y2361129D02*
X11749216D01*
X11698433Y2513479D02*
X11673041Y2538871D01*
X11622257D01*
X11596866Y2513479D01*
Y2488088D01*
X11622257Y2462696D01*
X11647649D01*
X11622257D01*
X11596866Y2437304D01*
Y2411912D01*
X11622257Y2386520D01*
X11673041D01*
X11698433Y2411912D01*
X7801567Y2538871D02*
X7852351D01*
X7826959D01*
Y2411912D01*
X7852351Y2386520D01*
X7877742D01*
X7903134Y2411912D01*
X7750784Y2361129D02*
X7649216D01*
X7496866Y2386520D02*
X7598433D01*
X7496866Y2488088D01*
Y2513479D01*
X7522257Y2538871D01*
X7573041D01*
X7598433Y2513479D01*
X3676175Y2538871D02*
X3726959D01*
X3701567D01*
Y2411912D01*
X3726959Y2386520D01*
X3752350D01*
X3777742Y2411912D01*
X3625392Y2361129D02*
X3523824D01*
X3473041Y2386520D02*
X3422257D01*
X3447649D01*
Y2538871D01*
X3473041Y2513479D01*
%TF.MD5,b65a3576f830e3a7345269c45f399587*%
M02*
