%TF.GenerationSoftware,Altium Limited,Altium Designer,24.6.1 (21)*%
G04 Layer_Color=65535*
%FSLAX45Y45*%
%MOMM*%
%TF.SameCoordinates,9A433DDD-85E4-4EE4-B99C-1E68303A8431*%
%TF.FilePolarity,Positive*%
%TF.FileFunction,Legend,Top*%
%TF.Part,Single*%
G01*
G75*
%TA.AperFunction,NonConductor*%
%ADD27C,0.20000*%
%ADD28C,0.25000*%
%ADD29C,0.60000*%
%ADD30C,0.25400*%
D27*
X2520000Y1068000D02*
G03*
X2752000Y1300000I0J232000D01*
G01*
D02*
G03*
X2520000Y1532000I-232000J0D01*
G01*
X1880000D02*
G03*
X1648000Y1300000I0J-232000D01*
G01*
Y1300000D02*
G03*
X1880000Y1068000I232000J0D01*
G01*
X1803899Y5878797D02*
G03*
X1930899Y5878797I63500J0D01*
G01*
X1880003Y1067503D02*
X2520007D01*
X1880003Y1532506D02*
X2520007D01*
X10658690Y49197D02*
Y1199197D01*
X9918691D02*
X10658690D01*
X9918691Y49197D02*
Y1199197D01*
Y49197D02*
X10658690D01*
X13753258D02*
Y1199197D01*
X13013260D02*
X13753258D01*
X13013260Y49197D02*
Y1199197D01*
Y49197D02*
X13753258D01*
X5243202D02*
Y1199197D01*
X4503198D02*
X5243202D01*
X4503198Y49197D02*
Y1199197D01*
Y49197D02*
X5243202D01*
X6790483D02*
Y1199197D01*
X6050480D02*
X6790483D01*
X6050480Y49197D02*
Y1199197D01*
Y49197D02*
X6790483D01*
X800000Y669998D02*
Y929998D01*
X624999Y921499D02*
Y939502D01*
Y660499D02*
Y678502D01*
Y660499D02*
X1075001D01*
Y921499D02*
Y939502D01*
Y660499D02*
Y678502D01*
X624999Y939502D02*
X1075001D01*
X464999Y4520928D02*
X546498D01*
Y4454928D02*
Y4520928D01*
X464999Y4228929D02*
X546498D01*
Y4294929D01*
X5276841Y49197D02*
X6016845D01*
X5276841D02*
Y1199197D01*
X6016845D01*
Y49197D02*
Y1199197D01*
X6824123Y49197D02*
X7564127D01*
X6824123D02*
Y1199197D01*
X7564127D01*
Y49197D02*
Y1199197D01*
X7597766Y49197D02*
X8337770D01*
X7597766D02*
Y1199197D01*
X8337770D01*
Y49197D02*
Y1199197D01*
X8371410Y49197D02*
X9111408D01*
X8371410D02*
Y1199197D01*
X9111408D01*
Y49197D02*
Y1199197D01*
X9145048Y49197D02*
X9885052D01*
X9145048D02*
Y1199197D01*
X9885052D01*
Y49197D02*
Y1199197D01*
X12239616Y49197D02*
X12979614D01*
X12239616D02*
Y1199197D01*
X12979614D01*
Y49197D02*
Y1199197D01*
X11465973Y49197D02*
X12205977D01*
X11465973D02*
Y1199197D01*
X12205977D01*
Y49197D02*
Y1199197D01*
X10692335Y49197D02*
X11432333D01*
X10692335D02*
Y1199197D01*
X11432333D01*
Y49197D02*
Y1199197D01*
X13786897Y49197D02*
X14526897D01*
X13786897D02*
Y1199197D01*
X14526897D01*
Y49197D02*
Y1199197D01*
X464999Y5095999D02*
X546498D01*
Y5030000D02*
Y5095999D01*
X464999Y4804001D02*
X546498D01*
Y4870000D01*
Y3145198D02*
Y3211197D01*
X464999Y3145198D02*
X546498D01*
Y3371197D02*
Y3437196D01*
X464999D02*
X546498D01*
X812502Y4849583D02*
Y5050406D01*
X987498Y4849583D02*
Y5050406D01*
X546498Y3687066D02*
Y3753065D01*
X464999Y3687066D02*
X546498D01*
Y3913065D02*
Y3979064D01*
X464999D02*
X546498D01*
X812502Y3574585D02*
Y3775407D01*
X987498Y3574585D02*
Y3775407D01*
X812502Y3999588D02*
Y4200410D01*
X987498Y3999588D02*
Y4200410D01*
X812502Y4424586D02*
Y4625408D01*
X987498Y4424586D02*
Y4625408D01*
Y3149592D02*
Y3350414D01*
X812502Y3149592D02*
Y3350414D01*
X1034996Y1164998D02*
Y1184998D01*
Y1355001D02*
Y1415000D01*
Y1584998D02*
Y1644997D01*
Y1815000D02*
Y1835000D01*
X664999D02*
X1034996D01*
X664999Y1164998D02*
Y1299999D01*
Y1699999D02*
Y1835000D01*
Y1164998D02*
X1034996D01*
X1602401Y2338798D02*
Y5878796D01*
X2132398Y2338798D02*
Y5878796D01*
X1602401D02*
X1803899D01*
X1930899D02*
X2132398D01*
X1602401Y2338798D02*
X2132398D01*
D28*
X9883690Y809197D02*
G03*
X9883690Y809197I-12500J0D01*
G01*
X12978256D02*
G03*
X12978256Y809197I-12500J0D01*
G01*
X4468199Y809194D02*
G03*
X4468199Y809194I-12500J0D01*
G01*
X6015482D02*
G03*
X6015482Y809194I-12500J0D01*
G01*
X393999Y4564931D02*
G03*
X393999Y4564931I-12500J0D01*
G01*
X5241841Y809194D02*
G03*
X5241841Y809194I-12500J0D01*
G01*
X6789124D02*
G03*
X6789124Y809194I-12500J0D01*
G01*
X7562765D02*
G03*
X7562765Y809194I-12500J0D01*
G01*
X8336407Y809197D02*
G03*
X8336407Y809197I-12500J0D01*
G01*
X9110049D02*
G03*
X9110049Y809197I-12500J0D01*
G01*
X12204615D02*
G03*
X12204615Y809197I-12500J0D01*
G01*
X11430973D02*
G03*
X11430973Y809197I-12500J0D01*
G01*
X10657332D02*
G03*
X10657332Y809197I-12500J0D01*
G01*
X13751898D02*
G03*
X13751898Y809197I-12500J0D01*
G01*
X393998Y5139998D02*
G03*
X393998Y5139998I-12500J0D01*
G01*
X393999Y3481198D02*
G03*
X393999Y3481198I-12500J0D01*
G01*
X393999Y4023063D02*
G03*
X393999Y4023063I-12500J0D01*
G01*
X1319999Y1267498D02*
G03*
X1319999Y1267498I-12500J0D01*
G01*
X1498899Y5889797D02*
G03*
X1498899Y5889797I-12500J0D01*
G01*
D29*
X1732399Y5778797D02*
G03*
X1732399Y5778797I-30000J0D01*
G01*
D30*
X7308690Y1841277D02*
X7275368Y1874600D01*
X7208723D01*
X7175400Y1841277D01*
Y1807955D01*
X7208723Y1774632D01*
X7275368D01*
X7308690Y1741309D01*
Y1707987D01*
X7275368Y1674664D01*
X7208723D01*
X7175400Y1707987D01*
X7375336Y1874600D02*
Y1674664D01*
X7508626D01*
X7575271D02*
Y1807955D01*
X7641916Y1874600D01*
X7708562Y1807955D01*
Y1674664D01*
Y1774632D01*
X7575271D01*
X7775207Y1674664D02*
Y1874600D01*
X7875175D01*
X7908497Y1841277D01*
Y1774632D01*
X7875175Y1741309D01*
X7775207D01*
X8175078Y1874600D02*
X8241723D01*
X8208401D01*
Y1674664D01*
X8175078D01*
X8241723D01*
X8341691D02*
Y1807955D01*
X8441659D01*
X8474981Y1774632D01*
Y1674664D01*
X8541627D02*
Y1807955D01*
X8641594D01*
X8674917Y1774632D01*
Y1674664D01*
X8774885D02*
X8841530D01*
X8874852Y1707987D01*
Y1774632D01*
X8841530Y1807955D01*
X8774885D01*
X8741562Y1774632D01*
Y1707987D01*
X8774885Y1674664D01*
X8941498Y1807955D02*
X9008143Y1674664D01*
X9074788Y1807955D01*
X9174756D02*
X9241401D01*
X9274724Y1774632D01*
Y1674664D01*
X9174756D01*
X9141433Y1707987D01*
X9174756Y1741309D01*
X9274724D01*
X9374691Y1841277D02*
Y1807955D01*
X9341369D01*
X9408014D01*
X9374691D01*
Y1707987D01*
X9408014Y1674664D01*
X9541304D02*
X9607950D01*
X9641272Y1707987D01*
Y1774632D01*
X9607950Y1807955D01*
X9541304D01*
X9507982Y1774632D01*
Y1707987D01*
X9541304Y1674664D01*
X9707917Y1807955D02*
Y1674664D01*
Y1741309D01*
X9741240Y1774632D01*
X9774562Y1807955D01*
X9807885D01*
X9907853Y1674664D02*
X10007821D01*
X10041143Y1707987D01*
X10007821Y1741309D01*
X9941175D01*
X9907853Y1774632D01*
X9941175Y1807955D01*
X10041143D01*
X748433Y1126175D02*
Y973825D01*
X824608D01*
X850000Y999216D01*
Y1100783D01*
X824608Y1126175D01*
X748433D01*
X900784Y973825D02*
X951567D01*
X926176D01*
Y1126175D01*
X900784Y1100783D01*
X13946864Y1286518D02*
Y1438868D01*
X14023039D01*
X14048431Y1413476D01*
Y1362693D01*
X14023039Y1337301D01*
X13946864D01*
X14099216Y1261126D02*
X14200783D01*
X14251566Y1413476D02*
X14276958Y1438868D01*
X14327742D01*
X14353134Y1413476D01*
Y1388085D01*
X14327742Y1362693D01*
X14353134Y1337301D01*
Y1311909D01*
X14327742Y1286518D01*
X14276958D01*
X14251566Y1311909D01*
Y1337301D01*
X14276958Y1362693D01*
X14251566Y1388085D01*
Y1413476D01*
X14276958Y1362693D02*
X14327742D01*
X13196864Y1286518D02*
Y1438868D01*
X13273039D01*
X13298431Y1413476D01*
Y1362693D01*
X13273039Y1337301D01*
X13196864D01*
X13349216Y1261126D02*
X13450783D01*
X13501566Y1438868D02*
X13603134D01*
Y1413476D01*
X13501566Y1311909D01*
Y1286518D01*
X12396865D02*
Y1438868D01*
X12473040D01*
X12498432Y1413476D01*
Y1362693D01*
X12473040Y1337301D01*
X12396865D01*
X12549216Y1261126D02*
X12650783D01*
X12803134Y1438868D02*
X12752350Y1413476D01*
X12701566Y1362693D01*
Y1311909D01*
X12726958Y1286518D01*
X12777742D01*
X12803134Y1311909D01*
Y1337301D01*
X12777742Y1362693D01*
X12701566D01*
X11596865Y1286518D02*
Y1438868D01*
X11673040D01*
X11698432Y1413476D01*
Y1362693D01*
X11673040Y1337301D01*
X11596865D01*
X11749216Y1261126D02*
X11850783D01*
X12003133Y1438868D02*
X11901566D01*
Y1362693D01*
X11952350Y1388085D01*
X11977742D01*
X12003133Y1362693D01*
Y1311909D01*
X11977742Y1286518D01*
X11926958D01*
X11901566Y1311909D01*
X10846865Y1286518D02*
Y1438868D01*
X10923040D01*
X10948432Y1413476D01*
Y1362693D01*
X10923040Y1337301D01*
X10846865D01*
X10999215Y1261126D02*
X11100783D01*
X11227742Y1286518D02*
Y1438868D01*
X11151566Y1362693D01*
X11253133D01*
X10096865Y1286518D02*
Y1438868D01*
X10173040D01*
X10198432Y1413476D01*
Y1362693D01*
X10173040Y1337301D01*
X10096865D01*
X10249216Y1261126D02*
X10350783D01*
X10401566Y1413476D02*
X10426958Y1438868D01*
X10477742D01*
X10503134Y1413476D01*
Y1388085D01*
X10477742Y1362693D01*
X10452350D01*
X10477742D01*
X10503134Y1337301D01*
Y1311909D01*
X10477742Y1286518D01*
X10426958D01*
X10401566Y1311909D01*
X9296865Y1286518D02*
Y1438868D01*
X9373040D01*
X9398432Y1413476D01*
Y1362693D01*
X9373040Y1337301D01*
X9296865D01*
X9449216Y1261126D02*
X9550783D01*
X9703134Y1286518D02*
X9601566D01*
X9703134Y1388085D01*
Y1413476D01*
X9677742Y1438868D01*
X9626958D01*
X9601566Y1413476D01*
X8522257Y1286518D02*
Y1438868D01*
X8598432D01*
X8623824Y1413476D01*
Y1362693D01*
X8598432Y1337301D01*
X8522257D01*
X8674607Y1261126D02*
X8776175D01*
X8826958Y1286518D02*
X8877742D01*
X8852350D01*
Y1438868D01*
X8826958Y1413476D01*
X7823040Y1273822D02*
Y1426172D01*
X7899216D01*
X7924607Y1400781D01*
Y1349997D01*
X7899216Y1324605D01*
X7823040D01*
X8051566Y1273822D02*
Y1426172D01*
X7975391Y1349997D01*
X8076958D01*
X7023040Y1273822D02*
Y1426172D01*
X7099216D01*
X7124608Y1400781D01*
Y1349997D01*
X7099216Y1324605D01*
X7023040D01*
X7175391Y1400781D02*
X7200783Y1426172D01*
X7251566D01*
X7276958Y1400781D01*
Y1375389D01*
X7251566Y1349997D01*
X7226175D01*
X7251566D01*
X7276958Y1324605D01*
Y1299214D01*
X7251566Y1273822D01*
X7200783D01*
X7175391Y1299214D01*
X6273040Y1273822D02*
Y1426172D01*
X6349216D01*
X6374608Y1400781D01*
Y1349997D01*
X6349216Y1324605D01*
X6273040D01*
X6526958Y1273822D02*
X6425391D01*
X6526958Y1375389D01*
Y1400781D01*
X6501566Y1426172D01*
X6450783D01*
X6425391Y1400781D01*
X5548432Y1273822D02*
Y1426172D01*
X5624607D01*
X5649999Y1400781D01*
Y1349997D01*
X5624607Y1324605D01*
X5548432D01*
X5700783Y1273822D02*
X5751566D01*
X5726175D01*
Y1426172D01*
X5700783Y1400781D01*
X4773040Y1273822D02*
Y1426172D01*
X4849216D01*
X4874607Y1400781D01*
Y1349997D01*
X4849216Y1324605D01*
X4773040D01*
X4925391Y1400781D02*
X4950783Y1426172D01*
X5001566D01*
X5026958Y1400781D01*
Y1299214D01*
X5001566Y1273822D01*
X4950783D01*
X4925391Y1299214D01*
Y1400781D01*
X874716Y2446300D02*
X849324Y2420908D01*
Y2370125D01*
X874716Y2344733D01*
X976283D01*
X1001675Y2370125D01*
Y2420908D01*
X976283Y2446300D01*
X1001675Y2497084D02*
Y2547867D01*
Y2522476D01*
X849324D01*
X874716Y2497084D01*
X549217Y2424608D02*
X523825Y2399216D01*
Y2348433D01*
X549217Y2323041D01*
X650784D01*
X676175Y2348433D01*
Y2399216D01*
X650784Y2424608D01*
X676175Y2576959D02*
Y2475392D01*
X574608Y2576959D01*
X549217D01*
X523825Y2551567D01*
Y2500784D01*
X549217Y2475392D01*
X1849217Y2124608D02*
X1823825Y2099217D01*
Y2048433D01*
X1849217Y2023041D01*
X1950784D01*
X1976175Y2048433D01*
Y2099217D01*
X1950784Y2124608D01*
X1849217Y2175392D02*
X1823825Y2200784D01*
Y2251567D01*
X1849217Y2276959D01*
X1874608D01*
X1900000Y2251567D01*
Y2226175D01*
Y2251567D01*
X1925392Y2276959D01*
X1950784D01*
X1976175Y2251567D01*
Y2200784D01*
X1950784Y2175392D01*
X2399216Y2129606D02*
X2373825Y2104214D01*
Y2053430D01*
X2399216Y2028038D01*
X2500783D01*
X2526175Y2053430D01*
Y2104214D01*
X2500783Y2129606D01*
X2526175Y2256564D02*
X2373825D01*
X2450000Y2180389D01*
Y2281956D01*
X531498Y5199214D02*
Y5300781D01*
X506106Y5326173D01*
X455323D01*
X429931Y5300781D01*
Y5199214D01*
X455323Y5173822D01*
X506106D01*
X480714Y5224606D02*
X531498Y5173822D01*
X506106D02*
X531498Y5199214D01*
X582282Y5173822D02*
X633065D01*
X607673D01*
Y5326173D01*
X582282Y5300781D01*
X524608Y4599214D02*
Y4700781D01*
X499216Y4726173D01*
X448432D01*
X423040Y4700781D01*
Y4599214D01*
X448432Y4573822D01*
X499216D01*
X473824Y4624606D02*
X524608Y4573822D01*
X499216D02*
X524608Y4599214D01*
X676958Y4573822D02*
X575391D01*
X676958Y4675389D01*
Y4700781D01*
X651566Y4726173D01*
X600783D01*
X575391Y4700781D01*
X524608Y4049214D02*
Y4150781D01*
X499216Y4176173D01*
X448432D01*
X423040Y4150781D01*
Y4049214D01*
X448432Y4023822D01*
X499216D01*
X473824Y4074606D02*
X524608Y4023822D01*
X499216D02*
X524608Y4049214D01*
X575391Y4150781D02*
X600783Y4176173D01*
X651566D01*
X676958Y4150781D01*
Y4125390D01*
X651566Y4099998D01*
X626175D01*
X651566D01*
X676958Y4074606D01*
Y4049214D01*
X651566Y4023822D01*
X600783D01*
X575391Y4049214D01*
X524608Y3499214D02*
Y3600781D01*
X499216Y3626173D01*
X448432D01*
X423040Y3600781D01*
Y3499214D01*
X448432Y3473822D01*
X499216D01*
X473824Y3524606D02*
X524608Y3473822D01*
X499216D02*
X524608Y3499214D01*
X651566Y3473822D02*
Y3626173D01*
X575391Y3549997D01*
X676958D01*
X1048433Y4873825D02*
Y5026175D01*
X1124608D01*
X1150000Y5000783D01*
Y4950000D01*
X1124608Y4924608D01*
X1048433D01*
X1099216D02*
X1150000Y4873825D01*
X1200784D02*
X1251567D01*
X1226176D01*
Y5026175D01*
X1200784Y5000783D01*
X1023041Y4458928D02*
Y4611279D01*
X1099216D01*
X1124608Y4585887D01*
Y4535103D01*
X1099216Y4509712D01*
X1023041D01*
X1073824D02*
X1124608Y4458928D01*
X1276959D02*
X1175392D01*
X1276959Y4560495D01*
Y4585887D01*
X1251567Y4611279D01*
X1200783D01*
X1175392Y4585887D01*
X1023041Y4013715D02*
Y4166066D01*
X1099216D01*
X1124608Y4140674D01*
Y4089891D01*
X1099216Y4064499D01*
X1023041D01*
X1073824D02*
X1124608Y4013715D01*
X1175392Y4140674D02*
X1200783Y4166066D01*
X1251567D01*
X1276959Y4140674D01*
Y4115283D01*
X1251567Y4089891D01*
X1226175D01*
X1251567D01*
X1276959Y4064499D01*
Y4039107D01*
X1251567Y4013715D01*
X1200783D01*
X1175392Y4039107D01*
X1023041Y3573825D02*
Y3726175D01*
X1099216D01*
X1124608Y3700784D01*
Y3650000D01*
X1099216Y3624608D01*
X1023041D01*
X1073825D02*
X1124608Y3573825D01*
X1251567D02*
Y3726175D01*
X1175392Y3650000D01*
X1276959D01*
X1023041Y3173825D02*
Y3326175D01*
X1099216D01*
X1124608Y3300784D01*
Y3250000D01*
X1099216Y3224608D01*
X1023041D01*
X1073825D02*
X1124608Y3173825D01*
X1276959Y3326175D02*
X1175392D01*
Y3250000D01*
X1226175Y3275392D01*
X1251567D01*
X1276959Y3250000D01*
Y3199217D01*
X1251567Y3173825D01*
X1200784D01*
X1175392Y3199217D01*
X1291532Y1528373D02*
Y1401414D01*
X1316924Y1376022D01*
X1367708D01*
X1393100Y1401414D01*
Y1528373D01*
X1443883Y1376022D02*
X1494667D01*
X1469275D01*
Y1528373D01*
X1443883Y1502981D01*
X1430519Y6143288D02*
Y6016329D01*
X1455911Y5990937D01*
X1506695D01*
X1532087Y6016329D01*
Y6143288D01*
X1684437Y5990937D02*
X1582870D01*
X1684437Y6092505D01*
Y6117896D01*
X1659045Y6143288D01*
X1608262D01*
X1582870Y6117896D01*
X2098433Y1776175D02*
Y1750783D01*
X2149216Y1700000D01*
X2200000Y1750783D01*
Y1776175D01*
X2149216Y1700000D02*
Y1623825D01*
X2250784D02*
X2301567D01*
X2276176D01*
Y1776175D01*
X2250784Y1750783D01*
%TF.MD5,c0b24fec1f801a14600a8ab18e5cc6f9*%
M02*
