%TF.GenerationSoftware,Altium Limited,Altium Designer,24.6.1 (21)*%
G04 Layer_Physical_Order=2*
G04 Layer_Color=16711680*
%FSLAX45Y45*%
%MOMM*%
%TF.SameCoordinates,9A433DDD-85E4-4EE4-B99C-1E68303A8431*%
%TF.FilePolarity,Positive*%
%TF.FileFunction,Copper,L2,Bot,Signal*%
%TF.Part,Single*%
G01*
G75*
%TA.AperFunction,Conductor*%
%ADD16C,0.50000*%
%ADD18C,0.30000*%
%TA.AperFunction,ViaPad*%
%ADD19C,0.60000*%
%TA.AperFunction,ComponentPad*%
%ADD20C,1.52000*%
G04:AMPARAMS|DCode=21|XSize=1.52mm|YSize=1.52mm|CornerRadius=0.38mm|HoleSize=0mm|Usage=FLASHONLY|Rotation=180.000|XOffset=0mm|YOffset=0mm|HoleType=Round|Shape=RoundedRectangle|*
%AMROUNDEDRECTD21*
21,1,1.52000,0.76000,0,0,180.0*
21,1,0.76000,1.52000,0,0,180.0*
1,1,0.76000,-0.38000,0.38000*
1,1,0.76000,0.38000,0.38000*
1,1,0.76000,0.38000,-0.38000*
1,1,0.76000,-0.38000,-0.38000*
%
%ADD21ROUNDEDRECTD21*%
%ADD22C,1.20000*%
%ADD23R,1.40000X1.40000*%
%ADD24C,1.40000*%
%ADD25C,1.50000*%
%ADD26R,1.50000X1.50000*%
G36*
X16450000Y50000D02*
X50000D01*
Y6200000D01*
X16450000D01*
Y50000D01*
D02*
G37*
%LPC*%
G36*
X16267238Y6175000D02*
X16232767D01*
X16198956Y6168275D01*
X16167108Y6155083D01*
X16138446Y6135932D01*
X16114072Y6111556D01*
X16094919Y6082894D01*
X16081728Y6051046D01*
X16075002Y6017236D01*
Y5982764D01*
X16081728Y5948955D01*
X16094919Y5917107D01*
X16114072Y5888444D01*
X16138446Y5864069D01*
X16167108Y5844917D01*
X16198956Y5831725D01*
X16232767Y5825000D01*
X16267238D01*
X16301048Y5831725D01*
X16332896Y5844917D01*
X16361559Y5864069D01*
X16385933Y5888444D01*
X16405086Y5917107D01*
X16418277Y5948955D01*
X16425002Y5982764D01*
Y6017236D01*
X16418277Y6051046D01*
X16405086Y6082894D01*
X16385933Y6111556D01*
X16361559Y6135932D01*
X16332896Y6155083D01*
X16301048Y6168275D01*
X16267238Y6175000D01*
D02*
G37*
G36*
X267234D02*
X232763D01*
X198953Y6168275D01*
X167105Y6155083D01*
X138442Y6135932D01*
X114067Y6111556D01*
X94915Y6082894D01*
X81724Y6051046D01*
X74999Y6017236D01*
Y5982764D01*
X81724Y5948955D01*
X94915Y5917107D01*
X114067Y5888444D01*
X138442Y5864069D01*
X167105Y5844917D01*
X198953Y5831725D01*
X232763Y5825000D01*
X267234D01*
X301044Y5831725D01*
X332892Y5844917D01*
X361555Y5864069D01*
X385930Y5888444D01*
X405081Y5917107D01*
X418273Y5948955D01*
X424998Y5982764D01*
Y6017236D01*
X418273Y6051046D01*
X405081Y6082894D01*
X385930Y6111556D01*
X361555Y6135932D01*
X332892Y6155083D01*
X301044Y6168275D01*
X267234Y6175000D01*
D02*
G37*
G36*
X1574099Y5847497D02*
X1398700D01*
Y5672098D01*
X1574099D01*
Y5847497D01*
D02*
G37*
G36*
X1497945Y5593497D02*
X1474854D01*
X1452549Y5587521D01*
X1432550Y5575975D01*
X1416222Y5559646D01*
X1404676Y5539648D01*
X1398700Y5517343D01*
Y5494252D01*
X1404676Y5471947D01*
X1416222Y5451948D01*
X1432550Y5435620D01*
X1452549Y5424074D01*
X1474854Y5418098D01*
X1497945D01*
X1520250Y5424074D01*
X1540248Y5435620D01*
X1556577Y5451948D01*
X1568123Y5471947D01*
X1574099Y5494252D01*
Y5517343D01*
X1568123Y5539648D01*
X1556577Y5559646D01*
X1540248Y5575975D01*
X1520250Y5587521D01*
X1497945Y5593497D01*
D02*
G37*
G36*
X2259945Y5339497D02*
X2236854D01*
X2214549Y5333521D01*
X2194550Y5321975D01*
X2178222Y5305646D01*
X2166676Y5285648D01*
X2160700Y5263343D01*
Y5261790D01*
X2083702Y5184792D01*
X2082519Y5183021D01*
X2080945Y5181588D01*
X2079487Y5178483D01*
X2077580Y5175630D01*
X2077165Y5173541D01*
X2076259Y5171614D01*
X2075586Y5168896D01*
X2075426Y5165469D01*
X2074757Y5162103D01*
Y4613023D01*
X2057378Y4595645D01*
X2051256Y4586483D01*
X2049106Y4575674D01*
X2049106Y4575673D01*
Y4455223D01*
X2049106Y4455221D01*
X2051256Y4444413D01*
X2057378Y4435251D01*
X2083028Y4409601D01*
X2083029Y4409600D01*
X2168202Y4324427D01*
X2168202Y4324427D01*
X2177365Y4318305D01*
X2187651Y4316258D01*
X2189003Y4314244D01*
X2192030Y4303455D01*
X2178222Y4289646D01*
X2166676Y4269648D01*
X2160700Y4247343D01*
Y4242147D01*
X2336099D01*
Y4247343D01*
X2330123Y4269648D01*
X2318577Y4289646D01*
X2304768Y4303455D01*
X2308332Y4316155D01*
X2333517D01*
X3007931Y3641740D01*
X3002671Y3629040D01*
X2617903D01*
X2383772Y3863171D01*
X2374610Y3869293D01*
X2363802Y3871443D01*
X2363800Y3871443D01*
X2132998D01*
X2132997Y3871443D01*
X2122189Y3869293D01*
X2113026Y3863171D01*
X2113026Y3863170D01*
X1878896Y3629040D01*
X1505748D01*
X1504076Y3641740D01*
X1520250Y3646074D01*
X1540248Y3657620D01*
X1556577Y3673948D01*
X1568123Y3693947D01*
X1574099Y3716252D01*
Y3739343D01*
X1568123Y3761648D01*
X1556577Y3781646D01*
X1540248Y3797975D01*
X1520250Y3809521D01*
X1497945Y3815497D01*
X1474854D01*
X1452549Y3809521D01*
X1432550Y3797975D01*
X1416222Y3781646D01*
X1404676Y3761648D01*
X1398700Y3739343D01*
Y3716252D01*
X1404676Y3693947D01*
X1416222Y3673948D01*
X1432550Y3657620D01*
X1452549Y3646074D01*
X1468723Y3641740D01*
X1467051Y3629040D01*
X1420361D01*
X1420359Y3629040D01*
X1409551Y3626890D01*
X1400389Y3620768D01*
X1400388Y3620767D01*
X1295624Y3516003D01*
X1289502Y3506841D01*
X1287352Y3496033D01*
X1287352Y3496031D01*
Y2628604D01*
X1287352Y2628602D01*
X1289502Y2617794D01*
X1295624Y2608632D01*
X1407579Y2496676D01*
X1404676Y2491648D01*
X1398700Y2469343D01*
Y2446252D01*
X1404676Y2423947D01*
X1416222Y2403948D01*
X1432550Y2387620D01*
X1452549Y2376074D01*
X1474854Y2370098D01*
X1497945D01*
X1520250Y2376074D01*
X1540248Y2387620D01*
X1556577Y2403948D01*
X1568123Y2423947D01*
X1574099Y2446252D01*
Y2469343D01*
X1568123Y2491648D01*
X1556577Y2511646D01*
X1540248Y2527975D01*
X1520250Y2539521D01*
X1497945Y2545497D01*
X1474854D01*
X1452549Y2539521D01*
X1447521Y2536618D01*
X1343837Y2640301D01*
Y2796457D01*
X1356537Y2801718D01*
X1407579Y2750676D01*
X1404676Y2745648D01*
X1398700Y2723343D01*
Y2700252D01*
X1404676Y2677947D01*
X1416222Y2657948D01*
X1432550Y2641620D01*
X1452549Y2630074D01*
X1474854Y2624098D01*
X1497945D01*
X1520250Y2630074D01*
X1540248Y2641620D01*
X1556577Y2657948D01*
X1568123Y2677947D01*
X1574099Y2700252D01*
Y2723343D01*
X1568123Y2745648D01*
X1556577Y2765646D01*
X1540248Y2781975D01*
X1520250Y2793521D01*
X1497945Y2799497D01*
X1474854D01*
X1452549Y2793521D01*
X1447521Y2790618D01*
X1399240Y2838899D01*
Y2915963D01*
X1411940Y2919366D01*
X1416222Y2911948D01*
X1432550Y2895620D01*
X1452549Y2884074D01*
X1474854Y2878098D01*
X1497945D01*
X1520250Y2884074D01*
X1540248Y2895620D01*
X1556577Y2911948D01*
X1568123Y2931947D01*
X1574099Y2954252D01*
Y2977343D01*
X1568123Y2999648D01*
X1565220Y3004676D01*
X1632302Y3071758D01*
X7527001D01*
X7527002Y3071758D01*
X7537810Y3073908D01*
X7546973Y3080030D01*
X7687391Y3220448D01*
X7692765Y3217346D01*
X7715324Y3211301D01*
X7738679D01*
X7761238Y3217346D01*
X7781464Y3229023D01*
X7797979Y3245538D01*
X7809656Y3265764D01*
X7815701Y3288323D01*
Y3311678D01*
X7809656Y3334237D01*
X7797979Y3354463D01*
X7781464Y3370978D01*
X7761238Y3382655D01*
X7738679Y3388700D01*
X7715324D01*
X7692765Y3382655D01*
X7672539Y3370978D01*
X7656024Y3354463D01*
X7644347Y3334237D01*
X7638302Y3311678D01*
Y3288323D01*
X7644347Y3265764D01*
X7647449Y3260389D01*
X7515303Y3128244D01*
X2290623D01*
X2287220Y3140944D01*
X2302248Y3149620D01*
X2318577Y3165948D01*
X2330123Y3185947D01*
X2336099Y3208252D01*
Y3231343D01*
X2330123Y3253648D01*
X2318577Y3273646D01*
X2302248Y3289975D01*
X2292341Y3295695D01*
X2295744Y3308395D01*
X2330681D01*
X2477348Y3161727D01*
X2477349Y3161727D01*
X2486511Y3155605D01*
X2497319Y3153455D01*
X3254695D01*
X3254697Y3153454D01*
X3265505Y3155605D01*
X3274667Y3161727D01*
X3333389Y3220448D01*
X3338763Y3217346D01*
X3361322Y3211301D01*
X3384677D01*
X3407237Y3217346D01*
X3427463Y3229023D01*
X3443977Y3245538D01*
X3455655Y3265764D01*
X3461699Y3288323D01*
Y3311678D01*
X3455655Y3334237D01*
X3443977Y3354463D01*
X3427463Y3370978D01*
X3407237Y3382655D01*
X3384677Y3388700D01*
X3361322D01*
X3338763Y3382655D01*
X3318537Y3370978D01*
X3302022Y3354463D01*
X3290345Y3334237D01*
X3284300Y3311678D01*
Y3288323D01*
X3290345Y3265764D01*
X3293447Y3260390D01*
X3242998Y3209940D01*
X3165810D01*
X3162407Y3222640D01*
X3173463Y3229023D01*
X3189977Y3245538D01*
X3201655Y3265764D01*
X3207699Y3288323D01*
Y3293651D01*
X3119000D01*
X3030300D01*
Y3288323D01*
X3036345Y3265764D01*
X3048022Y3245538D01*
X3064537Y3229023D01*
X3075592Y3222640D01*
X3072189Y3209940D01*
X2509018D01*
X2362350Y3356608D01*
X2353188Y3362730D01*
X2342379Y3364880D01*
X2342378Y3364880D01*
X2122837D01*
X2112029Y3362730D01*
X2102866Y3356608D01*
X2102866Y3356607D01*
X1994298Y3248040D01*
X1569625D01*
X1568123Y3253648D01*
X1556577Y3273646D01*
X1540248Y3289975D01*
X1520250Y3301521D01*
X1504076Y3305855D01*
X1505748Y3318555D01*
X1953758D01*
X1953759Y3318554D01*
X1964568Y3320705D01*
X1973730Y3326827D01*
X2153153Y3506250D01*
X2164540Y3499676D01*
X2160700Y3485343D01*
Y3462252D01*
X2166676Y3439947D01*
X2178222Y3419948D01*
X2194550Y3403620D01*
X2214549Y3392074D01*
X2236854Y3386098D01*
X2259945D01*
X2282250Y3392074D01*
X2302248Y3403620D01*
X2318577Y3419948D01*
X2330123Y3439947D01*
X2336099Y3462252D01*
Y3485343D01*
X2330123Y3507648D01*
X2318577Y3527646D01*
X2302248Y3543975D01*
X2294831Y3548257D01*
X2298234Y3560957D01*
X2312901D01*
X2414950Y3458907D01*
X2414951Y3458907D01*
X2424114Y3452785D01*
X2434922Y3450634D01*
X2434923Y3450635D01*
X3996921D01*
X4285829Y3161727D01*
X4294991Y3155605D01*
X4305799Y3153454D01*
X4305801Y3153455D01*
X7354697D01*
X7354699Y3153454D01*
X7365507Y3155605D01*
X7374669Y3161727D01*
X7433391Y3220448D01*
X7438765Y3217346D01*
X7461324Y3211301D01*
X7484679D01*
X7507238Y3217346D01*
X7527464Y3229023D01*
X7543979Y3245538D01*
X7555656Y3265764D01*
X7561701Y3288323D01*
Y3311678D01*
X7555656Y3334237D01*
X7543979Y3354463D01*
X7527464Y3370978D01*
X7507238Y3382655D01*
X7484679Y3388700D01*
X7461324D01*
X7438765Y3382655D01*
X7418539Y3370978D01*
X7402024Y3354463D01*
X7390347Y3334237D01*
X7384302Y3311678D01*
Y3288323D01*
X7390347Y3265764D01*
X7393449Y3260390D01*
X7343000Y3209940D01*
X7265812D01*
X7262409Y3222640D01*
X7273464Y3229023D01*
X7289979Y3245538D01*
X7301656Y3265764D01*
X7307701Y3288323D01*
Y3293651D01*
X7219002D01*
X7130302D01*
Y3288323D01*
X7136347Y3265764D01*
X7148024Y3245538D01*
X7164539Y3229023D01*
X7175594Y3222640D01*
X7172191Y3209940D01*
X4317498D01*
X4028590Y3498848D01*
X4019428Y3504970D01*
X4008619Y3507120D01*
X4008618Y3507120D01*
X2446620D01*
X2344570Y3609171D01*
X2335408Y3615293D01*
X2324599Y3617443D01*
X2324598Y3617443D01*
X2196163D01*
X2196162Y3617443D01*
X2185354Y3615293D01*
X2176191Y3609171D01*
X2176190Y3609170D01*
X1942061Y3375040D01*
X1505748D01*
X1504076Y3387740D01*
X1520250Y3392074D01*
X1540248Y3403620D01*
X1556577Y3419948D01*
X1568123Y3439947D01*
X1574099Y3462252D01*
Y3485343D01*
X1568123Y3507648D01*
X1556577Y3527646D01*
X1540248Y3543975D01*
X1520250Y3555521D01*
X1504076Y3559855D01*
X1505748Y3572555D01*
X1890593D01*
X1890595Y3572554D01*
X1901403Y3574705D01*
X1910565Y3580827D01*
X2144695Y3814957D01*
X2198565D01*
X2201968Y3802257D01*
X2194550Y3797975D01*
X2178222Y3781646D01*
X2166676Y3761648D01*
X2160700Y3739343D01*
Y3716252D01*
X2166676Y3693947D01*
X2178222Y3673948D01*
X2194550Y3657620D01*
X2214549Y3646074D01*
X2236854Y3640098D01*
X2259945D01*
X2282250Y3646074D01*
X2302248Y3657620D01*
X2318577Y3673948D01*
X2330123Y3693947D01*
X2336099Y3716252D01*
Y3739343D01*
X2330123Y3761648D01*
X2318577Y3781646D01*
X2302248Y3797975D01*
X2294831Y3802257D01*
X2298234Y3814957D01*
X2352103D01*
X2586233Y3580827D01*
X2586233Y3580827D01*
X2595396Y3574705D01*
X2606204Y3572554D01*
X2606205Y3572555D01*
X3823201D01*
X3853826Y3541930D01*
X3853826Y3541929D01*
X3862989Y3535807D01*
X3873797Y3533657D01*
X4134939D01*
X4237629Y3430967D01*
X4237630Y3430967D01*
X4246792Y3424845D01*
X4257600Y3422694D01*
X4257602Y3422695D01*
X11664363D01*
X11747446Y3339611D01*
X11744344Y3334237D01*
X11738299Y3311678D01*
Y3288323D01*
X11744344Y3265764D01*
X11756021Y3245538D01*
X11772536Y3229023D01*
X11792762Y3217346D01*
X11815321Y3211301D01*
X11838676D01*
X11861235Y3217346D01*
X11881461Y3229023D01*
X11897976Y3245538D01*
X11909653Y3265764D01*
X11915698Y3288323D01*
Y3311678D01*
X11909653Y3334237D01*
X11897976Y3354463D01*
X11881461Y3370978D01*
X11861235Y3382655D01*
X11838676Y3388700D01*
X11815321D01*
X11792762Y3382655D01*
X11787388Y3379553D01*
X11696032Y3470908D01*
X11686870Y3477030D01*
X11676061Y3479180D01*
X11676060Y3479180D01*
X4269299D01*
X4183855Y3564624D01*
X4188716Y3576357D01*
X7048458D01*
X7087485Y3537330D01*
X7087486Y3537329D01*
X7096648Y3531207D01*
X7107456Y3529057D01*
X11017686D01*
X11017687Y3529057D01*
X11028495Y3531207D01*
X11037658Y3537329D01*
X11272086Y3771757D01*
X11592248D01*
X11592249Y3771757D01*
X11603058Y3773907D01*
X11612220Y3780029D01*
X11766874Y3934683D01*
X11772536Y3929022D01*
X11792762Y3917344D01*
X11815321Y3911299D01*
X11838676D01*
X11861235Y3917344D01*
X11881461Y3929022D01*
X11897976Y3945536D01*
X11909653Y3965762D01*
X11915698Y3988321D01*
Y4011677D01*
X11909653Y4034236D01*
X11897976Y4054462D01*
X11881461Y4070977D01*
X11861235Y4082654D01*
X11838676Y4088699D01*
X11815321D01*
X11792762Y4082654D01*
X11772536Y4070977D01*
X11756021Y4054462D01*
X11744344Y4034236D01*
X11738299Y4011677D01*
Y3988321D01*
X11738791Y3986483D01*
X11632728Y3880420D01*
X11620071Y3885724D01*
X11614494Y3899188D01*
X11609010Y3904672D01*
X11608589Y3907680D01*
X11611713Y3919929D01*
X11627461Y3929022D01*
X11643976Y3945536D01*
X11655653Y3965762D01*
X11661698Y3988321D01*
Y4011677D01*
X11655653Y4034236D01*
X11643976Y4054462D01*
X11627461Y4070977D01*
X11607235Y4082654D01*
X11584676Y4088699D01*
X11561321D01*
X11538762Y4082654D01*
X11518536Y4070977D01*
X11502021Y4054462D01*
X11490344Y4034236D01*
X11484299Y4011677D01*
Y3988321D01*
X11490344Y3965762D01*
X11502021Y3945536D01*
X11505963Y3941594D01*
X11500703Y3928894D01*
X11409325D01*
X11403338Y3940094D01*
X11404757Y3942217D01*
X11408692Y3961999D01*
Y4035332D01*
X11484921Y4111561D01*
X15253078D01*
X15329308Y4035332D01*
Y3961999D01*
X15333241Y3942217D01*
X15344447Y3925447D01*
X15361218Y3914241D01*
X15381000Y3910306D01*
X15457001D01*
X15476784Y3914241D01*
X15493553Y3925447D01*
X15504759Y3942217D01*
X15508694Y3961999D01*
Y4037999D01*
X15504759Y4057781D01*
X15493553Y4074552D01*
X15476784Y4085757D01*
X15457001Y4089692D01*
X15383669D01*
X15296181Y4177180D01*
X15283710Y4185513D01*
X15268999Y4188439D01*
X15268999Y4188439D01*
X11469001D01*
X11468999Y4188439D01*
X11454290Y4185513D01*
X11441819Y4177180D01*
X11354331Y4089692D01*
X11280999D01*
X11261216Y4085757D01*
X11244446Y4074552D01*
X11233240Y4057781D01*
X11229305Y4037999D01*
Y3964666D01*
X11003077Y3738439D01*
X7428112Y3738439D01*
X7412272Y3745000D01*
X7394370D01*
X7378530Y3738439D01*
X3946921D01*
X3925710Y3759650D01*
X3919149Y3775490D01*
X3906490Y3788149D01*
X3889951Y3795000D01*
X3872049D01*
X3855509Y3788149D01*
X3842851Y3775490D01*
X3836000Y3758951D01*
Y3741049D01*
X3841274Y3728315D01*
X3835151Y3715615D01*
X3074326D01*
X2987218Y3802724D01*
X2992078Y3814457D01*
X7455427D01*
X7455428Y3814457D01*
X7466236Y3816607D01*
X7475399Y3822729D01*
X7492972Y3840302D01*
X7492972Y3840303D01*
X7499094Y3849466D01*
X7501245Y3860274D01*
X7501244Y3860275D01*
Y3915738D01*
X7507238Y3917344D01*
X7527464Y3929022D01*
X7543979Y3945536D01*
X7555656Y3965762D01*
X7561701Y3988321D01*
Y4011677D01*
X7555656Y4034236D01*
X7543979Y4054462D01*
X7527464Y4070977D01*
X7507238Y4082654D01*
X7484679Y4088699D01*
X7461324D01*
X7438765Y4082654D01*
X7418539Y4070977D01*
X7402024Y4054462D01*
X7390347Y4034236D01*
X7384302Y4011677D01*
Y3988321D01*
X7390347Y3965762D01*
X7402024Y3945536D01*
X7418539Y3929022D01*
X7438765Y3917344D01*
X7444759Y3915738D01*
Y3871972D01*
X7443729Y3870943D01*
X2979385D01*
X2362418Y4487910D01*
X2353256Y4494032D01*
X2342448Y4496182D01*
X2336099Y4501344D01*
X2330123Y4523648D01*
X2318577Y4543646D01*
X2302248Y4559975D01*
X2282250Y4571521D01*
X2275508Y4573327D01*
X2274868Y4575158D01*
X2274479Y4586751D01*
X2280673Y4590890D01*
X2371069Y4681287D01*
X2371070Y4681287D01*
X2377192Y4690450D01*
X2379342Y4701258D01*
X2379342Y4701259D01*
Y4895097D01*
X2377192Y4905905D01*
X2371070Y4915068D01*
X2371069Y4915069D01*
X2327220Y4958918D01*
X2330123Y4963947D01*
X2336099Y4986252D01*
Y5009343D01*
X2330123Y5031648D01*
X2318577Y5051646D01*
X2302248Y5067975D01*
X2282250Y5079521D01*
X2259945Y5085497D01*
X2236854D01*
X2214549Y5079521D01*
X2194550Y5067975D01*
X2178222Y5051646D01*
X2166676Y5031648D01*
X2160700Y5009343D01*
Y4986252D01*
X2166676Y4963947D01*
X2178222Y4943948D01*
X2194550Y4927620D01*
X2214549Y4916074D01*
X2236854Y4910098D01*
X2259945D01*
X2282250Y4916074D01*
X2287278Y4918977D01*
X2322857Y4883399D01*
Y4811327D01*
X2310157Y4806066D01*
X2302248Y4813975D01*
X2282250Y4825521D01*
X2259945Y4831497D01*
X2236854D01*
X2214549Y4825521D01*
X2194550Y4813975D01*
X2178222Y4797646D01*
X2166676Y4777648D01*
X2160700Y4755343D01*
Y4732252D01*
X2166676Y4709947D01*
X2178222Y4689948D01*
X2194550Y4673620D01*
X2214549Y4662074D01*
X2236854Y4656098D01*
X2237762D01*
X2244353Y4643398D01*
X2241330Y4639103D01*
X2224223D01*
X2213414Y4636953D01*
X2204252Y4630831D01*
X2118292Y4544871D01*
X2105592Y4550132D01*
Y4563976D01*
X2122969Y4581354D01*
X2122970Y4581354D01*
X2129092Y4590517D01*
X2131242Y4601325D01*
X2131242Y4601326D01*
Y5152449D01*
X2176914Y5198121D01*
X2178222Y5197948D01*
X2194550Y5181620D01*
X2214549Y5170074D01*
X2236854Y5164098D01*
X2259945D01*
X2282250Y5170074D01*
X2302248Y5181620D01*
X2318577Y5197948D01*
X2330123Y5217947D01*
X2336099Y5240252D01*
Y5263343D01*
X2330123Y5285648D01*
X2318577Y5305646D01*
X2302248Y5321975D01*
X2282250Y5333521D01*
X2259945Y5339497D01*
D02*
G37*
G36*
X1497945D02*
X1474854D01*
X1452549Y5333521D01*
X1432550Y5321975D01*
X1416222Y5305646D01*
X1404676Y5285648D01*
X1398700Y5263343D01*
Y5240252D01*
X1404676Y5217947D01*
X1416222Y5197948D01*
X1432550Y5181620D01*
X1452549Y5170074D01*
X1474854Y5164098D01*
X1497945D01*
X1520250Y5170074D01*
X1540248Y5181620D01*
X1556577Y5197948D01*
X1568123Y5217947D01*
X1574099Y5240252D01*
Y5263343D01*
X1568123Y5285648D01*
X1556577Y5305646D01*
X1540248Y5321975D01*
X1520250Y5333521D01*
X1497945Y5339497D01*
D02*
G37*
G36*
X15838678Y5238699D02*
X15815323D01*
X15792764Y5232654D01*
X15772539Y5220977D01*
X15756023Y5204462D01*
X15744347Y5184236D01*
X15738301Y5161677D01*
Y5138322D01*
X15744347Y5115762D01*
X15756023Y5095536D01*
X15772539Y5079022D01*
X15792764Y5067344D01*
X15815323Y5061300D01*
X15838678D01*
X15861238Y5067344D01*
X15881464Y5079022D01*
X15897978Y5095536D01*
X15909656Y5115762D01*
X15915700Y5138322D01*
Y5161677D01*
X15909656Y5184236D01*
X15897978Y5204462D01*
X15881464Y5220977D01*
X15861238Y5232654D01*
X15838678Y5238699D01*
D02*
G37*
G36*
X11738676D02*
X11715321D01*
X11692762Y5232654D01*
X11672536Y5220977D01*
X11656021Y5204462D01*
X11644344Y5184236D01*
X11638299Y5161677D01*
Y5138322D01*
X11644344Y5115762D01*
X11656021Y5095536D01*
X11672536Y5079022D01*
X11692762Y5067344D01*
X11715321Y5061300D01*
X11738676D01*
X11761236Y5067344D01*
X11781462Y5079022D01*
X11797976Y5095536D01*
X11809654Y5115762D01*
X11815698Y5138322D01*
Y5161677D01*
X11809654Y5184236D01*
X11797976Y5204462D01*
X11781462Y5220977D01*
X11761236Y5232654D01*
X11738676Y5238699D01*
D02*
G37*
G36*
X7638679D02*
X7615324D01*
X7592765Y5232654D01*
X7572539Y5220977D01*
X7556024Y5204462D01*
X7544347Y5184236D01*
X7538302Y5161677D01*
Y5138322D01*
X7544347Y5115762D01*
X7556024Y5095536D01*
X7572539Y5079022D01*
X7592765Y5067344D01*
X7615324Y5061300D01*
X7638679D01*
X7661239Y5067344D01*
X7681465Y5079022D01*
X7697979Y5095536D01*
X7709657Y5115762D01*
X7715702Y5138322D01*
Y5161677D01*
X7709657Y5184236D01*
X7697979Y5204462D01*
X7681465Y5220977D01*
X7661239Y5232654D01*
X7638679Y5238699D01*
D02*
G37*
G36*
X3538677D02*
X3515322D01*
X3492763Y5232654D01*
X3472537Y5220977D01*
X3456022Y5204462D01*
X3444345Y5184236D01*
X3438300Y5161677D01*
Y5138322D01*
X3444345Y5115762D01*
X3456022Y5095536D01*
X3472537Y5079022D01*
X3492763Y5067344D01*
X3515322Y5061300D01*
X3538677D01*
X3561237Y5067344D01*
X3581463Y5079022D01*
X3597977Y5095536D01*
X3609655Y5115762D01*
X3615700Y5138322D01*
Y5161677D01*
X3609655Y5184236D01*
X3597977Y5204462D01*
X3581463Y5220977D01*
X3561237Y5232654D01*
X3538677Y5238699D01*
D02*
G37*
G36*
X15611002Y5239693D02*
X15535001D01*
X15515218Y5235758D01*
X15498448Y5224552D01*
X15487242Y5207782D01*
X15483307Y5187999D01*
Y5111999D01*
X15487242Y5092217D01*
X15498448Y5075447D01*
X15515218Y5064241D01*
X15535001Y5060306D01*
X15611002D01*
X15630783Y5064241D01*
X15647552Y5075447D01*
X15658759Y5092217D01*
X15662694Y5111999D01*
Y5187999D01*
X15658759Y5207782D01*
X15647552Y5224552D01*
X15630783Y5235758D01*
X15611002Y5239693D01*
D02*
G37*
G36*
X11510999D02*
X11434999D01*
X11415216Y5235758D01*
X11398446Y5224552D01*
X11387240Y5207782D01*
X11383305Y5187999D01*
Y5111999D01*
X11387240Y5092217D01*
X11398446Y5075447D01*
X11415216Y5064241D01*
X11434999Y5060306D01*
X11510999D01*
X11530781Y5064241D01*
X11547551Y5075447D01*
X11558757Y5092217D01*
X11562692Y5111999D01*
Y5187999D01*
X11558757Y5207782D01*
X11547551Y5224552D01*
X11530781Y5235758D01*
X11510999Y5239693D01*
D02*
G37*
G36*
X7411002D02*
X7335002D01*
X7315220Y5235758D01*
X7298449Y5224552D01*
X7287243Y5207782D01*
X7283309Y5187999D01*
Y5111999D01*
X7287243Y5092217D01*
X7298449Y5075447D01*
X7315220Y5064241D01*
X7335002Y5060306D01*
X7411002D01*
X7430784Y5064241D01*
X7447554Y5075447D01*
X7458760Y5092217D01*
X7462695Y5111999D01*
Y5187999D01*
X7458760Y5207782D01*
X7447554Y5224552D01*
X7430784Y5235758D01*
X7411002Y5239693D01*
D02*
G37*
G36*
X3311000D02*
X3235000D01*
X3215218Y5235758D01*
X3198447Y5224552D01*
X3187242Y5207782D01*
X3183307Y5187999D01*
Y5111999D01*
X3187242Y5092217D01*
X3198447Y5075447D01*
X3215218Y5064241D01*
X3235000Y5060306D01*
X3311000D01*
X3330782Y5064241D01*
X3347552Y5075447D01*
X3358758Y5092217D01*
X3362693Y5111999D01*
Y5187999D01*
X3358758Y5207782D01*
X3347552Y5224552D01*
X3330782Y5235758D01*
X3311000Y5239693D01*
D02*
G37*
G36*
X1497945Y5085497D02*
X1474854D01*
X1452549Y5079521D01*
X1432550Y5067975D01*
X1416222Y5051646D01*
X1404676Y5031648D01*
X1398700Y5009343D01*
Y4986252D01*
X1404676Y4963947D01*
X1416222Y4943948D01*
X1432550Y4927620D01*
X1452549Y4916074D01*
X1474854Y4910098D01*
X1497945D01*
X1520250Y4916074D01*
X1540248Y4927620D01*
X1556577Y4943948D01*
X1568123Y4963947D01*
X1574099Y4986252D01*
Y5009343D01*
X1568123Y5031648D01*
X1556577Y5051646D01*
X1540248Y5067975D01*
X1520250Y5079521D01*
X1497945Y5085497D01*
D02*
G37*
G36*
X463485Y4912700D02*
X461342D01*
Y4876350D01*
X497692D01*
Y4878493D01*
X491191Y4894187D01*
X479179Y4906199D01*
X463485Y4912700D01*
D02*
G37*
G36*
X448642D02*
X446498D01*
X430804Y4906199D01*
X418793Y4894187D01*
X412292Y4878493D01*
Y4876350D01*
X448642D01*
Y4912700D01*
D02*
G37*
G36*
X497692Y4863650D02*
X461342D01*
Y4827300D01*
X463485D01*
X479179Y4833801D01*
X491191Y4845813D01*
X497692Y4861506D01*
Y4863650D01*
D02*
G37*
G36*
X448642D02*
X412292D01*
Y4861506D01*
X418793Y4845813D01*
X430804Y4833801D01*
X446498Y4827300D01*
X448642D01*
Y4863650D01*
D02*
G37*
G36*
X1497945Y4831497D02*
X1474854D01*
X1452549Y4825521D01*
X1432550Y4813975D01*
X1416222Y4797646D01*
X1404676Y4777648D01*
X1398700Y4755343D01*
Y4732252D01*
X1404676Y4709947D01*
X1416222Y4689948D01*
X1432550Y4673620D01*
X1452549Y4662074D01*
X1474854Y4656098D01*
X1497945D01*
X1520250Y4662074D01*
X1540248Y4673620D01*
X1556577Y4689948D01*
X1568123Y4709947D01*
X1574099Y4732252D01*
Y4755343D01*
X1568123Y4777648D01*
X1556577Y4797646D01*
X1540248Y4813975D01*
X1520250Y4825521D01*
X1497945Y4831497D01*
D02*
G37*
G36*
Y4577497D02*
X1474854D01*
X1452549Y4571521D01*
X1432550Y4559975D01*
X1416222Y4543646D01*
X1404676Y4523648D01*
X1398700Y4501343D01*
Y4478252D01*
X1404676Y4455947D01*
X1416222Y4435948D01*
X1432550Y4419620D01*
X1452549Y4408074D01*
X1474854Y4402098D01*
X1497945D01*
X1520250Y4408074D01*
X1540248Y4419620D01*
X1556577Y4435948D01*
X1568123Y4455947D01*
X1574099Y4478252D01*
Y4501343D01*
X1568123Y4523648D01*
X1556577Y4543646D01*
X1540248Y4559975D01*
X1520250Y4571521D01*
X1497945Y4577497D01*
D02*
G37*
G36*
X463414Y4337629D02*
X461271D01*
Y4301279D01*
X497621D01*
Y4303422D01*
X491120Y4319116D01*
X479108Y4331128D01*
X463414Y4337629D01*
D02*
G37*
G36*
X448571D02*
X446427D01*
X430733Y4331128D01*
X418722Y4319116D01*
X412221Y4303422D01*
Y4301279D01*
X448571D01*
Y4337629D01*
D02*
G37*
G36*
X497621Y4288579D02*
X461271D01*
Y4252229D01*
X463414D01*
X479108Y4258730D01*
X491120Y4270741D01*
X497621Y4286435D01*
Y4288579D01*
D02*
G37*
G36*
X448571D02*
X412221D01*
Y4286435D01*
X418722Y4270741D01*
X430733Y4258730D01*
X446427Y4252229D01*
X448571D01*
Y4288579D01*
D02*
G37*
G36*
X2336099Y4229447D02*
X2254749D01*
Y4148098D01*
X2259945D01*
X2282250Y4154074D01*
X2302248Y4165620D01*
X2318577Y4181948D01*
X2330123Y4201947D01*
X2336099Y4224252D01*
Y4229447D01*
D02*
G37*
G36*
X2242049D02*
X2160700D01*
Y4224252D01*
X2166676Y4201947D01*
X2178222Y4181948D01*
X2194550Y4165620D01*
X2214549Y4154074D01*
X2236854Y4148098D01*
X2242049D01*
Y4229447D01*
D02*
G37*
G36*
X1497945Y4323497D02*
X1474854D01*
X1452549Y4317521D01*
X1432550Y4305975D01*
X1416222Y4289646D01*
X1404676Y4269648D01*
X1398700Y4247343D01*
Y4224252D01*
X1404676Y4201947D01*
X1416222Y4181948D01*
X1432550Y4165620D01*
X1452549Y4154074D01*
X1474854Y4148098D01*
X1497945D01*
X1520250Y4154074D01*
X1540248Y4165620D01*
X1556577Y4181948D01*
X1568123Y4201947D01*
X1574099Y4224252D01*
Y4247343D01*
X1568123Y4269648D01*
X1556577Y4289646D01*
X1540248Y4305975D01*
X1520250Y4317521D01*
X1497945Y4323497D01*
D02*
G37*
G36*
X16192677Y4088699D02*
X16187350D01*
Y4006349D01*
X16269701D01*
Y4011677D01*
X16263655Y4034236D01*
X16251978Y4054462D01*
X16235463Y4070977D01*
X16215237Y4082654D01*
X16192677Y4088699D01*
D02*
G37*
G36*
X16174651D02*
X16169324D01*
X16146764Y4082654D01*
X16126537Y4070977D01*
X16110023Y4054462D01*
X16098346Y4034236D01*
X16092300Y4011677D01*
Y4006349D01*
X16174651D01*
Y4088699D01*
D02*
G37*
G36*
X12092676D02*
X12087348D01*
Y4006349D01*
X12169698D01*
Y4011677D01*
X12163653Y4034236D01*
X12151976Y4054462D01*
X12135461Y4070977D01*
X12115235Y4082654D01*
X12092676Y4088699D01*
D02*
G37*
G36*
X12074648D02*
X12069321D01*
X12046762Y4082654D01*
X12026536Y4070977D01*
X12010021Y4054462D01*
X11998344Y4034236D01*
X11992299Y4011677D01*
Y4006349D01*
X12074648D01*
Y4088699D01*
D02*
G37*
G36*
X7992679D02*
X7987352D01*
Y4006349D01*
X8069701D01*
Y4011677D01*
X8063656Y4034236D01*
X8051979Y4054462D01*
X8035464Y4070977D01*
X8015238Y4082654D01*
X7992679Y4088699D01*
D02*
G37*
G36*
X7974652D02*
X7969324D01*
X7946765Y4082654D01*
X7926539Y4070977D01*
X7910024Y4054462D01*
X7898347Y4034236D01*
X7892302Y4011677D01*
Y4006349D01*
X7974652D01*
Y4088699D01*
D02*
G37*
G36*
X3892677D02*
X3887350D01*
Y4006349D01*
X3969699D01*
Y4011677D01*
X3963655Y4034236D01*
X3951977Y4054462D01*
X3935463Y4070977D01*
X3915237Y4082654D01*
X3892677Y4088699D01*
D02*
G37*
G36*
X3874650D02*
X3869322D01*
X3846763Y4082654D01*
X3826537Y4070977D01*
X3810022Y4054462D01*
X3798345Y4034236D01*
X3792300Y4011677D01*
Y4006349D01*
X3874650D01*
Y4088699D01*
D02*
G37*
G36*
X1497945Y4069497D02*
X1492749D01*
Y3988147D01*
X1574099D01*
Y3993343D01*
X1568123Y4015648D01*
X1556577Y4035646D01*
X1540248Y4051975D01*
X1520250Y4063521D01*
X1497945Y4069497D01*
D02*
G37*
G36*
X1480049D02*
X1474854D01*
X1452549Y4063521D01*
X1432550Y4051975D01*
X1416222Y4035646D01*
X1404676Y4015648D01*
X1398700Y3993343D01*
Y3988147D01*
X1480049D01*
Y4069497D01*
D02*
G37*
G36*
X16269701Y3993649D02*
X16187350D01*
Y3911299D01*
X16192677D01*
X16215237Y3917344D01*
X16235463Y3929022D01*
X16251978Y3945536D01*
X16263655Y3965762D01*
X16269701Y3988321D01*
Y3993649D01*
D02*
G37*
G36*
X16174651D02*
X16092300D01*
Y3988321D01*
X16098346Y3965762D01*
X16110023Y3945536D01*
X16126537Y3929022D01*
X16146764Y3917344D01*
X16169324Y3911299D01*
X16174651D01*
Y3993649D01*
D02*
G37*
G36*
X2259945Y5847497D02*
X2236854D01*
X2214549Y5841521D01*
X2194550Y5829975D01*
X2178222Y5813646D01*
X2166676Y5793648D01*
X2160700Y5771343D01*
Y5748252D01*
X2166676Y5725947D01*
X2178222Y5705948D01*
X2194550Y5689620D01*
X2214549Y5678074D01*
X2236854Y5672098D01*
X2259945D01*
X2282250Y5678074D01*
X2302248Y5689620D01*
X2318577Y5705948D01*
X2330123Y5725947D01*
X2331625Y5731555D01*
X14455502D01*
X15898758Y4288300D01*
Y4084260D01*
X15892763Y4082654D01*
X15872537Y4070977D01*
X15856023Y4054462D01*
X15844347Y4034236D01*
X15838301Y4011677D01*
Y3988321D01*
X15844347Y3965762D01*
X15856023Y3945536D01*
X15872537Y3929022D01*
X15892763Y3917344D01*
X15915323Y3911299D01*
X15938678D01*
X15961237Y3917344D01*
X15981464Y3929022D01*
X15997978Y3945536D01*
X16009656Y3965762D01*
X16015700Y3988321D01*
Y4011677D01*
X16009656Y4034236D01*
X15997978Y4054462D01*
X15981464Y4070977D01*
X15961237Y4082654D01*
X15955243Y4084260D01*
Y4299997D01*
X15955243Y4299999D01*
X15953093Y4310806D01*
X15946971Y4319969D01*
X15946970Y4319970D01*
X14487172Y5779768D01*
X14478011Y5785890D01*
X14467201Y5788040D01*
X14467200Y5788040D01*
X2331625D01*
X2330123Y5793648D01*
X2318577Y5813646D01*
X2302248Y5829975D01*
X2282250Y5841521D01*
X2259945Y5847497D01*
D02*
G37*
G36*
X14323001Y5678241D02*
X14323000Y5678241D01*
X2392600D01*
X2381792Y5676091D01*
X2372629Y5669969D01*
X2372629Y5669968D01*
X2287278Y5584618D01*
X2282250Y5587521D01*
X2259945Y5593497D01*
X2236854D01*
X2214549Y5587521D01*
X2194550Y5575975D01*
X2178222Y5559646D01*
X2166676Y5539648D01*
X2160700Y5517343D01*
Y5494252D01*
X2166676Y5471947D01*
X2178222Y5451948D01*
X2194550Y5435620D01*
X2214549Y5424074D01*
X2236854Y5418098D01*
X2259945D01*
X2282250Y5424074D01*
X2302248Y5435620D01*
X2318577Y5451948D01*
X2330123Y5471947D01*
X2336099Y5494252D01*
Y5517343D01*
X2330123Y5539648D01*
X2327220Y5544676D01*
X2404299Y5621756D01*
X14311302D01*
X15644759Y4288300D01*
Y4084260D01*
X15638763Y4082654D01*
X15618536Y4070977D01*
X15602023Y4054462D01*
X15590346Y4034236D01*
X15584302Y4011677D01*
Y3988321D01*
X15590346Y3965762D01*
X15602023Y3945536D01*
X15618536Y3929022D01*
X15638763Y3917344D01*
X15661324Y3911299D01*
X15684679D01*
X15707237Y3917344D01*
X15727463Y3929022D01*
X15743977Y3945536D01*
X15755655Y3965762D01*
X15761700Y3988321D01*
Y4011677D01*
X15755655Y4034236D01*
X15743977Y4054462D01*
X15727463Y4070977D01*
X15707237Y4082654D01*
X15701244Y4084260D01*
Y4299997D01*
X15701244Y4299999D01*
X15699094Y4310806D01*
X15692970Y4319969D01*
X15692970Y4319970D01*
X14342970Y5669969D01*
X14333809Y5676091D01*
X14323001Y5678241D01*
D02*
G37*
G36*
X12169698Y3993649D02*
X12087348D01*
Y3911299D01*
X12092676D01*
X12115235Y3917344D01*
X12135461Y3929022D01*
X12151976Y3945536D01*
X12163653Y3965762D01*
X12169698Y3988321D01*
Y3993649D01*
D02*
G37*
G36*
X12074648D02*
X11992299D01*
Y3988321D01*
X11998344Y3965762D01*
X12010021Y3945536D01*
X12026536Y3929022D01*
X12046762Y3917344D01*
X12069321Y3911299D01*
X12074648D01*
Y3993649D01*
D02*
G37*
G36*
X8069701D02*
X7987352D01*
Y3911299D01*
X7992679D01*
X8015238Y3917344D01*
X8035464Y3929022D01*
X8051979Y3945536D01*
X8063656Y3965762D01*
X8069701Y3988321D01*
Y3993649D01*
D02*
G37*
G36*
X7974652D02*
X7892302D01*
Y3988321D01*
X7898347Y3965762D01*
X7910024Y3945536D01*
X7926539Y3929022D01*
X7946765Y3917344D01*
X7969324Y3911299D01*
X7974652D01*
Y3993649D01*
D02*
G37*
G36*
X7738679Y4088699D02*
X7715324D01*
X7692765Y4082654D01*
X7672539Y4070977D01*
X7656024Y4054462D01*
X7644347Y4034236D01*
X7638302Y4011677D01*
Y3988321D01*
X7644347Y3965762D01*
X7656024Y3945536D01*
X7672539Y3929022D01*
X7692765Y3917344D01*
X7715324Y3911299D01*
X7738679D01*
X7761238Y3917344D01*
X7781464Y3929022D01*
X7797979Y3945536D01*
X7809656Y3965762D01*
X7815701Y3988321D01*
Y4011677D01*
X7809656Y4034236D01*
X7797979Y4054462D01*
X7781464Y4070977D01*
X7761238Y4082654D01*
X7738679Y4088699D01*
D02*
G37*
G36*
X3969699Y3993649D02*
X3887350D01*
Y3911299D01*
X3892677D01*
X3915237Y3917344D01*
X3935463Y3929022D01*
X3951977Y3945536D01*
X3963655Y3965762D01*
X3969699Y3988321D01*
Y3993649D01*
D02*
G37*
G36*
X3874650D02*
X3792300D01*
Y3988321D01*
X3798345Y3965762D01*
X3810022Y3945536D01*
X3826537Y3929022D01*
X3846763Y3917344D01*
X3869322Y3911299D01*
X3874650D01*
Y3993649D01*
D02*
G37*
G36*
X3638677Y4088699D02*
X3615322D01*
X3592763Y4082654D01*
X3572537Y4070977D01*
X3556022Y4054462D01*
X3544345Y4034236D01*
X3538300Y4011677D01*
Y3988321D01*
X3544345Y3965762D01*
X3556022Y3945536D01*
X3572537Y3929022D01*
X3592763Y3917344D01*
X3615322Y3911299D01*
X3638677D01*
X3661237Y3917344D01*
X3681463Y3929022D01*
X3697977Y3945536D01*
X3709655Y3965762D01*
X3715699Y3988321D01*
Y4011677D01*
X3709655Y4034236D01*
X3697977Y4054462D01*
X3681463Y4070977D01*
X3661237Y4082654D01*
X3638677Y4088699D01*
D02*
G37*
G36*
X3384677D02*
X3361322D01*
X3338763Y4082654D01*
X3318537Y4070977D01*
X3302022Y4054462D01*
X3290345Y4034236D01*
X3284300Y4011677D01*
Y3988321D01*
X3290345Y3965762D01*
X3302022Y3945536D01*
X3318537Y3929022D01*
X3338763Y3917344D01*
X3361322Y3911299D01*
X3384677D01*
X3407237Y3917344D01*
X3427463Y3929022D01*
X3443977Y3945536D01*
X3455655Y3965762D01*
X3461699Y3988321D01*
Y4011677D01*
X3455655Y4034236D01*
X3443977Y4054462D01*
X3427463Y4070977D01*
X3407237Y4082654D01*
X3384677Y4088699D01*
D02*
G37*
G36*
X7257001Y4089692D02*
X7181002D01*
X7161219Y4085757D01*
X7144449Y4074552D01*
X7133243Y4057781D01*
X7129308Y4037999D01*
Y3961999D01*
X7133243Y3942217D01*
X7144449Y3925447D01*
X7161219Y3914241D01*
X7181002Y3910306D01*
X7257001D01*
X7276784Y3914241D01*
X7293554Y3925447D01*
X7304760Y3942217D01*
X7308695Y3961999D01*
Y4037999D01*
X7304760Y4057781D01*
X7293554Y4074552D01*
X7276784Y4085757D01*
X7257001Y4089692D01*
D02*
G37*
G36*
X3157000D02*
X3081000D01*
X3061217Y4085757D01*
X3044447Y4074552D01*
X3033241Y4057781D01*
X3029306Y4037999D01*
Y3961999D01*
X3033241Y3942217D01*
X3044447Y3925447D01*
X3061217Y3914241D01*
X3081000Y3910306D01*
X3157000D01*
X3176782Y3914241D01*
X3193552Y3925447D01*
X3204758Y3942217D01*
X3208693Y3961999D01*
Y4037999D01*
X3204758Y4057781D01*
X3193552Y4074552D01*
X3176782Y4085757D01*
X3157000Y4089692D01*
D02*
G37*
G36*
X2259945Y4069497D02*
X2236854D01*
X2214549Y4063521D01*
X2194550Y4051975D01*
X2178222Y4035646D01*
X2166676Y4015648D01*
X2160700Y3993343D01*
Y3970252D01*
X2166676Y3947947D01*
X2178222Y3927948D01*
X2194550Y3911620D01*
X2214549Y3900074D01*
X2236854Y3894098D01*
X2259945D01*
X2282250Y3900074D01*
X2302248Y3911620D01*
X2318577Y3927948D01*
X2330123Y3947947D01*
X2336099Y3970252D01*
Y3993343D01*
X2330123Y4015648D01*
X2318577Y4035646D01*
X2302248Y4051975D01*
X2282250Y4063521D01*
X2259945Y4069497D01*
D02*
G37*
G36*
X1574099Y3975447D02*
X1492749D01*
Y3894098D01*
X1497945D01*
X1520250Y3900074D01*
X1540248Y3911620D01*
X1556577Y3927948D01*
X1568123Y3947947D01*
X1574099Y3970252D01*
Y3975447D01*
D02*
G37*
G36*
X1480049D02*
X1398700D01*
Y3970252D01*
X1404676Y3947947D01*
X1416222Y3927948D01*
X1432550Y3911620D01*
X1452549Y3900074D01*
X1474854Y3894098D01*
X1480049D01*
Y3975447D01*
D02*
G37*
G36*
X464278Y3795765D02*
X462134D01*
Y3759415D01*
X498484D01*
Y3761559D01*
X491983Y3777253D01*
X479972Y3789264D01*
X464278Y3795765D01*
D02*
G37*
G36*
X449434D02*
X447291D01*
X431597Y3789264D01*
X419585Y3777253D01*
X413084Y3761559D01*
Y3759415D01*
X449434D01*
Y3795765D01*
D02*
G37*
G36*
X498484Y3746715D02*
X462134D01*
Y3710365D01*
X464278D01*
X479972Y3716866D01*
X491983Y3728878D01*
X498484Y3744572D01*
Y3746715D01*
D02*
G37*
G36*
X449434D02*
X413084D01*
Y3744572D01*
X419585Y3728878D01*
X431597Y3716866D01*
X447291Y3710365D01*
X449434D01*
Y3746715D01*
D02*
G37*
G36*
X15430678Y3388700D02*
X15425349D01*
Y3306351D01*
X15507700D01*
Y3311678D01*
X15501656Y3334237D01*
X15489978Y3354463D01*
X15473463Y3370978D01*
X15453236Y3382655D01*
X15430678Y3388700D01*
D02*
G37*
G36*
X11330676D02*
X11325348D01*
Y3306351D01*
X11407698D01*
Y3311678D01*
X11401653Y3334237D01*
X11389976Y3354463D01*
X11373461Y3370978D01*
X11353235Y3382655D01*
X11330676Y3388700D01*
D02*
G37*
G36*
X7230679D02*
X7225352D01*
Y3306351D01*
X7307701D01*
Y3311678D01*
X7301656Y3334237D01*
X7289979Y3354463D01*
X7273464Y3370978D01*
X7253238Y3382655D01*
X7230679Y3388700D01*
D02*
G37*
G36*
X3130677D02*
X3125350D01*
Y3306351D01*
X3207699D01*
Y3311678D01*
X3201655Y3334237D01*
X3189977Y3354463D01*
X3173463Y3370978D01*
X3153237Y3382655D01*
X3130677Y3388700D01*
D02*
G37*
G36*
X15412650D02*
X15407323D01*
X15384763Y3382655D01*
X15364537Y3370978D01*
X15348022Y3354463D01*
X15336346Y3334237D01*
X15330301Y3311678D01*
Y3306351D01*
X15412650D01*
Y3388700D01*
D02*
G37*
G36*
X11312648D02*
X11307321D01*
X11284762Y3382655D01*
X11264536Y3370978D01*
X11248021Y3354463D01*
X11236344Y3334237D01*
X11230299Y3311678D01*
Y3306351D01*
X11312648D01*
Y3388700D01*
D02*
G37*
G36*
X7212652D02*
X7207324D01*
X7184765Y3382655D01*
X7164539Y3370978D01*
X7148024Y3354463D01*
X7136347Y3334237D01*
X7130302Y3311678D01*
Y3306351D01*
X7212652D01*
Y3388700D01*
D02*
G37*
G36*
X3112650D02*
X3107322D01*
X3084763Y3382655D01*
X3064537Y3370978D01*
X3048022Y3354463D01*
X3036345Y3334237D01*
X3030300Y3311678D01*
Y3306351D01*
X3112650D01*
Y3388700D01*
D02*
G37*
G36*
X15938678D02*
X15915323D01*
X15892763Y3382655D01*
X15872537Y3370978D01*
X15856023Y3354463D01*
X15844347Y3334237D01*
X15838301Y3311678D01*
Y3288323D01*
X15844347Y3265764D01*
X15847449Y3260389D01*
X15327100Y2740040D01*
X2331625D01*
X2330123Y2745648D01*
X2318577Y2765646D01*
X2302248Y2781975D01*
X2282250Y2793521D01*
X2259945Y2799497D01*
X2236854D01*
X2214549Y2793521D01*
X2194550Y2781975D01*
X2178222Y2765646D01*
X2166676Y2745648D01*
X2160700Y2723343D01*
Y2700252D01*
X2166676Y2677947D01*
X2178222Y2657948D01*
X2194550Y2641620D01*
X2214549Y2630074D01*
X2236854Y2624098D01*
X2259945D01*
X2282250Y2630074D01*
X2302248Y2641620D01*
X2318577Y2657948D01*
X2330123Y2677947D01*
X2331625Y2683555D01*
X10856645D01*
X10864072Y2670854D01*
X10859719Y2660347D01*
Y2653399D01*
X10824441Y2618120D01*
X2380481D01*
X2380479Y2618120D01*
X2369671Y2615970D01*
X2360509Y2609848D01*
X2287278Y2536618D01*
X2282250Y2539521D01*
X2259945Y2545497D01*
X2236854D01*
X2214549Y2539521D01*
X2194550Y2527975D01*
X2178222Y2511646D01*
X2166676Y2491648D01*
X2160700Y2469343D01*
Y2446252D01*
X2166676Y2423947D01*
X2178222Y2403948D01*
X2194550Y2387620D01*
X2214549Y2376074D01*
X2236854Y2370098D01*
X2259945D01*
X2282250Y2376074D01*
X2302248Y2387620D01*
X2318577Y2403948D01*
X2330123Y2423947D01*
X2336099Y2446252D01*
Y2469343D01*
X2330123Y2491648D01*
X2327220Y2496676D01*
X2392178Y2561635D01*
X10836138D01*
X10836139Y2561634D01*
X10846948Y2563785D01*
X10856110Y2569907D01*
X10893528Y2607324D01*
X10895768Y2606396D01*
X10913670D01*
X10930210Y2613247D01*
X10942868Y2625906D01*
X10949719Y2642445D01*
Y2660347D01*
X10945367Y2670854D01*
X10952794Y2683555D01*
X15338795D01*
X15338797Y2683554D01*
X15349606Y2685705D01*
X15358768Y2691827D01*
X15887389Y3220448D01*
X15892763Y3217346D01*
X15915323Y3211301D01*
X15938678D01*
X15961237Y3217346D01*
X15981464Y3229023D01*
X15997978Y3245538D01*
X16009656Y3265764D01*
X16015700Y3288323D01*
Y3311678D01*
X16009656Y3334237D01*
X15997978Y3354463D01*
X15981464Y3370978D01*
X15961237Y3382655D01*
X15938678Y3388700D01*
D02*
G37*
G36*
X15684679D02*
X15661324D01*
X15638763Y3382655D01*
X15618536Y3370978D01*
X15602023Y3354463D01*
X15590346Y3334237D01*
X15584302Y3311678D01*
Y3288323D01*
X15590346Y3265764D01*
X15593448Y3260389D01*
X15327100Y2994040D01*
X2331625D01*
X2330123Y2999648D01*
X2318577Y3019646D01*
X2302248Y3035975D01*
X2282250Y3047521D01*
X2259945Y3053497D01*
X2236854D01*
X2214549Y3047521D01*
X2194550Y3035975D01*
X2178222Y3019646D01*
X2166676Y2999648D01*
X2160700Y2977343D01*
Y2954252D01*
X2166676Y2931947D01*
X2178222Y2911948D01*
X2194550Y2895620D01*
X2214549Y2884074D01*
X2236854Y2878098D01*
X2259945D01*
X2282250Y2884074D01*
X2302248Y2895620D01*
X2318577Y2911948D01*
X2330123Y2931947D01*
X2331625Y2937555D01*
X15338795D01*
X15338797Y2937554D01*
X15349606Y2939705D01*
X15358768Y2945827D01*
X15633389Y3220448D01*
X15638763Y3217346D01*
X15661324Y3211301D01*
X15684679D01*
X15707237Y3217346D01*
X15727463Y3229023D01*
X15743977Y3245538D01*
X15755655Y3265764D01*
X15761700Y3288323D01*
Y3311678D01*
X15755655Y3334237D01*
X15743977Y3354463D01*
X15727463Y3370978D01*
X15707237Y3382655D01*
X15684679Y3388700D01*
D02*
G37*
G36*
X15507700Y3293651D02*
X15425349D01*
Y3211301D01*
X15430678D01*
X15453236Y3217346D01*
X15473463Y3229023D01*
X15489978Y3245538D01*
X15501656Y3265764D01*
X15507700Y3288323D01*
Y3293651D01*
D02*
G37*
G36*
X15412650D02*
X15330301D01*
Y3288323D01*
X15336346Y3265764D01*
X15348022Y3245538D01*
X15364537Y3229023D01*
X15384763Y3217346D01*
X15407323Y3211301D01*
X15412650D01*
Y3293651D01*
D02*
G37*
G36*
X11584676Y3388700D02*
X11561321D01*
X11538762Y3382655D01*
X11518536Y3370978D01*
X11502021Y3354463D01*
X11490344Y3334237D01*
X11484299Y3311678D01*
Y3288323D01*
X11490344Y3265764D01*
X11502021Y3245538D01*
X11518536Y3229023D01*
X11538762Y3217346D01*
X11561321Y3211301D01*
X11584676D01*
X11607235Y3217346D01*
X11627461Y3229023D01*
X11643976Y3245538D01*
X11655653Y3265764D01*
X11661698Y3288323D01*
Y3311678D01*
X11655653Y3334237D01*
X11643976Y3354463D01*
X11627461Y3370978D01*
X11607235Y3382655D01*
X11584676Y3388700D01*
D02*
G37*
G36*
X11407698Y3293651D02*
X11325348D01*
Y3211301D01*
X11330676D01*
X11353235Y3217346D01*
X11373461Y3229023D01*
X11389976Y3245538D01*
X11401653Y3265764D01*
X11407698Y3288323D01*
Y3293651D01*
D02*
G37*
G36*
X11312648D02*
X11230299D01*
Y3288323D01*
X11236344Y3265764D01*
X11248021Y3245538D01*
X11264536Y3229023D01*
X11284762Y3217346D01*
X11307321Y3211301D01*
X11312648D01*
Y3293651D01*
D02*
G37*
G36*
X3638677Y3388700D02*
X3615322D01*
X3592763Y3382655D01*
X3572537Y3370978D01*
X3556022Y3354463D01*
X3544345Y3334237D01*
X3538300Y3311678D01*
Y3288323D01*
X3544345Y3265764D01*
X3556022Y3245538D01*
X3572537Y3229023D01*
X3592763Y3217346D01*
X3615322Y3211301D01*
X3638677D01*
X3661237Y3217346D01*
X3681463Y3229023D01*
X3697977Y3245538D01*
X3709655Y3265764D01*
X3715699Y3288323D01*
Y3311678D01*
X3709655Y3334237D01*
X3697977Y3354463D01*
X3681463Y3370978D01*
X3661237Y3382655D01*
X3638677Y3388700D01*
D02*
G37*
G36*
X16219000Y3389694D02*
X16142999D01*
X16123218Y3385759D01*
X16106448Y3374553D01*
X16095242Y3357783D01*
X16091307Y3338000D01*
Y3262001D01*
X16095242Y3242218D01*
X16106448Y3225448D01*
X16123218Y3214242D01*
X16142999Y3210307D01*
X16219000D01*
X16238783Y3214242D01*
X16255553Y3225448D01*
X16266759Y3242218D01*
X16270694Y3262001D01*
Y3338000D01*
X16266759Y3357783D01*
X16255553Y3374553D01*
X16238783Y3385759D01*
X16219000Y3389694D01*
D02*
G37*
G36*
X12118998D02*
X12042999D01*
X12023216Y3385759D01*
X12006446Y3374553D01*
X11995240Y3357783D01*
X11991305Y3338000D01*
Y3262001D01*
X11995240Y3242218D01*
X12006446Y3225448D01*
X12023216Y3214242D01*
X12042999Y3210307D01*
X12118998D01*
X12138781Y3214242D01*
X12155551Y3225448D01*
X12166757Y3242218D01*
X12170692Y3262001D01*
Y3338000D01*
X12166757Y3357783D01*
X12155551Y3374553D01*
X12138781Y3385759D01*
X12118998Y3389694D01*
D02*
G37*
G36*
X8019001D02*
X7943002D01*
X7923219Y3385759D01*
X7906449Y3374553D01*
X7895243Y3357783D01*
X7891308Y3338000D01*
Y3262001D01*
X7895243Y3242218D01*
X7906449Y3225448D01*
X7923219Y3214242D01*
X7943002Y3210307D01*
X8019001D01*
X8038784Y3214242D01*
X8055554Y3225448D01*
X8066760Y3242218D01*
X8070695Y3262001D01*
Y3338000D01*
X8066760Y3357783D01*
X8055554Y3374553D01*
X8038784Y3385759D01*
X8019001Y3389694D01*
D02*
G37*
G36*
X3919000D02*
X3843000D01*
X3823217Y3385759D01*
X3806447Y3374553D01*
X3795241Y3357783D01*
X3791306Y3338000D01*
Y3262001D01*
X3795241Y3242218D01*
X3806447Y3225448D01*
X3823217Y3214242D01*
X3843000Y3210307D01*
X3919000D01*
X3938782Y3214242D01*
X3955552Y3225448D01*
X3966758Y3242218D01*
X3970693Y3262001D01*
Y3338000D01*
X3966758Y3357783D01*
X3955552Y3374553D01*
X3938782Y3385759D01*
X3919000Y3389694D01*
D02*
G37*
G36*
X471192Y3241039D02*
X469048D01*
Y3204690D01*
X505398D01*
Y3206833D01*
X498897Y3222527D01*
X486885Y3234539D01*
X471192Y3241039D01*
D02*
G37*
G36*
X456348D02*
X454205D01*
X438511Y3234539D01*
X426499Y3222527D01*
X419998Y3206833D01*
Y3204690D01*
X456348D01*
Y3241039D01*
D02*
G37*
G36*
X505398Y3191990D02*
X469048D01*
Y3155640D01*
X471192D01*
X486885Y3162140D01*
X498897Y3174152D01*
X505398Y3189846D01*
Y3191990D01*
D02*
G37*
G36*
X456348D02*
X419998D01*
Y3189846D01*
X426499Y3174152D01*
X438511Y3162140D01*
X454205Y3155640D01*
X456348D01*
Y3191990D01*
D02*
G37*
G36*
X783495Y2237704D02*
X781351D01*
Y2201354D01*
X817701D01*
Y2203497D01*
X811200Y2219191D01*
X799189Y2231203D01*
X783495Y2237704D01*
D02*
G37*
G36*
X768651D02*
X766508D01*
X750814Y2231203D01*
X738802Y2219191D01*
X732301Y2203497D01*
Y2201354D01*
X768651D01*
Y2237704D01*
D02*
G37*
G36*
X817701Y2188654D02*
X781351D01*
Y2152304D01*
X783495D01*
X799189Y2158805D01*
X811200Y2170817D01*
X817701Y2186510D01*
Y2188654D01*
D02*
G37*
G36*
X768651D02*
X732301D01*
Y2186510D01*
X738802Y2170817D01*
X750814Y2158805D01*
X766508Y2152304D01*
X768651D01*
Y2188654D01*
D02*
G37*
G36*
X15784679Y2238700D02*
X15761324D01*
X15738763Y2232655D01*
X15718538Y2220978D01*
X15702023Y2204463D01*
X15690346Y2184237D01*
X15684302Y2161678D01*
Y2138323D01*
X15690346Y2115763D01*
X15702023Y2095537D01*
X15718538Y2079023D01*
X15738763Y2067345D01*
X15761324Y2061300D01*
X15784679D01*
X15807237Y2067345D01*
X15827463Y2079023D01*
X15843977Y2095537D01*
X15855655Y2115763D01*
X15861700Y2138323D01*
Y2161678D01*
X15855655Y2184237D01*
X15843977Y2204463D01*
X15827463Y2220978D01*
X15807237Y2232655D01*
X15784679Y2238700D01*
D02*
G37*
G36*
X11684676D02*
X11661321D01*
X11638762Y2232655D01*
X11618536Y2220978D01*
X11602021Y2204463D01*
X11590344Y2184237D01*
X11584299Y2161678D01*
Y2138323D01*
X11590344Y2115763D01*
X11602021Y2095537D01*
X11618536Y2079023D01*
X11638762Y2067345D01*
X11661321Y2061300D01*
X11684676D01*
X11707235Y2067345D01*
X11727461Y2079023D01*
X11743976Y2095537D01*
X11755653Y2115763D01*
X11761698Y2138323D01*
Y2161678D01*
X11755653Y2184237D01*
X11743976Y2204463D01*
X11727461Y2220978D01*
X11707235Y2232655D01*
X11684676Y2238700D01*
D02*
G37*
G36*
X7584679D02*
X7561324D01*
X7538765Y2232655D01*
X7518539Y2220978D01*
X7502024Y2204463D01*
X7490347Y2184237D01*
X7484302Y2161678D01*
Y2138323D01*
X7490347Y2115763D01*
X7502024Y2095537D01*
X7518539Y2079023D01*
X7538765Y2067345D01*
X7561324Y2061300D01*
X7584679D01*
X7607239Y2067345D01*
X7627465Y2079023D01*
X7643979Y2095537D01*
X7655657Y2115763D01*
X7661701Y2138323D01*
Y2161678D01*
X7655657Y2184237D01*
X7643979Y2204463D01*
X7627465Y2220978D01*
X7607239Y2232655D01*
X7584679Y2238700D01*
D02*
G37*
G36*
X3484677D02*
X3461322D01*
X3438762Y2232655D01*
X3418536Y2220978D01*
X3402022Y2204463D01*
X3390345Y2184237D01*
X3384300Y2161678D01*
Y2138323D01*
X3390345Y2115763D01*
X3402022Y2095537D01*
X3418536Y2079023D01*
X3438762Y2067345D01*
X3461322Y2061300D01*
X3484677D01*
X3507236Y2067345D01*
X3527462Y2079023D01*
X3543977Y2095537D01*
X3555654Y2115763D01*
X3561699Y2138323D01*
Y2161678D01*
X3555654Y2184237D01*
X3543977Y2204463D01*
X3527462Y2220978D01*
X3507236Y2232655D01*
X3484677Y2238700D01*
D02*
G37*
G36*
X16064999Y2239694D02*
X15989001D01*
X15969218Y2235759D01*
X15952448Y2224553D01*
X15941241Y2207782D01*
X15937308Y2188000D01*
Y2112000D01*
X15941241Y2092218D01*
X15952448Y2075448D01*
X15969218Y2064242D01*
X15989001Y2060307D01*
X16064999D01*
X16084782Y2064242D01*
X16101553Y2075448D01*
X16112759Y2092218D01*
X16116695Y2112000D01*
Y2188000D01*
X16112759Y2207782D01*
X16101553Y2224553D01*
X16084782Y2235759D01*
X16064999Y2239694D01*
D02*
G37*
G36*
X11964998D02*
X11888999D01*
X11869216Y2235759D01*
X11852446Y2224553D01*
X11841240Y2207782D01*
X11837305Y2188000D01*
Y2112000D01*
X11841240Y2092218D01*
X11852446Y2075448D01*
X11869216Y2064242D01*
X11888999Y2060307D01*
X11964998D01*
X11984781Y2064242D01*
X12001551Y2075448D01*
X12012757Y2092218D01*
X12016692Y2112000D01*
Y2188000D01*
X12012757Y2207782D01*
X12001551Y2224553D01*
X11984781Y2235759D01*
X11964998Y2239694D01*
D02*
G37*
G36*
X7865002D02*
X7789002D01*
X7769219Y2235759D01*
X7752449Y2224553D01*
X7741243Y2207782D01*
X7737308Y2188000D01*
Y2112000D01*
X7741243Y2092218D01*
X7752449Y2075448D01*
X7769219Y2064242D01*
X7789002Y2060307D01*
X7865002D01*
X7884784Y2064242D01*
X7901554Y2075448D01*
X7912760Y2092218D01*
X7916695Y2112000D01*
Y2188000D01*
X7912760Y2207782D01*
X7901554Y2224553D01*
X7884784Y2235759D01*
X7865002Y2239694D01*
D02*
G37*
G36*
X3764999D02*
X3688999D01*
X3669217Y2235759D01*
X3652447Y2224553D01*
X3641241Y2207782D01*
X3637306Y2188000D01*
Y2112000D01*
X3641241Y2092218D01*
X3652447Y2075448D01*
X3669217Y2064242D01*
X3688999Y2060307D01*
X3764999D01*
X3784782Y2064242D01*
X3801552Y2075448D01*
X3812758Y2092218D01*
X3816693Y2112000D01*
Y2188000D01*
X3812758Y2207782D01*
X3801552Y2224553D01*
X3784782Y2235759D01*
X3764999Y2239694D01*
D02*
G37*
G36*
X2458493Y1842698D02*
X2456349D01*
Y1806348D01*
X2492699D01*
Y1808492D01*
X2486198Y1824186D01*
X2474187Y1836197D01*
X2458493Y1842698D01*
D02*
G37*
G36*
X2443649D02*
X2441506D01*
X2425812Y1836197D01*
X2413800Y1824186D01*
X2407299Y1808492D01*
Y1806348D01*
X2443649D01*
Y1842698D01*
D02*
G37*
G36*
X1913495D02*
X1911352D01*
Y1806348D01*
X1947701D01*
Y1808492D01*
X1941201Y1824186D01*
X1929189Y1836197D01*
X1913495Y1842698D01*
D02*
G37*
G36*
X1898652D02*
X1896508D01*
X1880814Y1836197D01*
X1868802Y1824186D01*
X1862302Y1808492D01*
Y1806348D01*
X1898652D01*
Y1842698D01*
D02*
G37*
G36*
X2492699Y1793648D02*
X2456349D01*
Y1757298D01*
X2458493D01*
X2474187Y1763799D01*
X2486198Y1775811D01*
X2492699Y1791505D01*
Y1793648D01*
D02*
G37*
G36*
X2443649D02*
X2407299D01*
Y1791505D01*
X2413800Y1775811D01*
X2425812Y1763799D01*
X2441506Y1757298D01*
X2443649D01*
Y1793648D01*
D02*
G37*
G36*
X1947701D02*
X1911352D01*
Y1757298D01*
X1913495D01*
X1929189Y1763799D01*
X1941201Y1775811D01*
X1947701Y1791505D01*
Y1793648D01*
D02*
G37*
G36*
X1898652D02*
X1862302D01*
Y1791505D01*
X1868802Y1775811D01*
X1880814Y1763799D01*
X1896508Y1757298D01*
X1898652D01*
Y1793648D01*
D02*
G37*
G36*
X958496Y1542699D02*
X956352D01*
Y1506349D01*
X992702D01*
Y1508493D01*
X986201Y1524186D01*
X974190Y1536198D01*
X958496Y1542699D01*
D02*
G37*
G36*
X943652D02*
X941509D01*
X925815Y1536198D01*
X913803Y1524186D01*
X907302Y1508493D01*
Y1506349D01*
X943652D01*
Y1542699D01*
D02*
G37*
G36*
X708494D02*
X706350D01*
Y1506349D01*
X742700D01*
Y1508493D01*
X736199Y1524186D01*
X724188Y1536198D01*
X708494Y1542699D01*
D02*
G37*
G36*
X693650D02*
X691507D01*
X675813Y1536198D01*
X663801Y1524186D01*
X657300Y1508493D01*
Y1506349D01*
X693650D01*
Y1542699D01*
D02*
G37*
G36*
X992702Y1493649D02*
X956352D01*
Y1457299D01*
X958496D01*
X974190Y1463800D01*
X986201Y1475812D01*
X992702Y1491506D01*
Y1493649D01*
D02*
G37*
G36*
X943652D02*
X907302D01*
Y1491506D01*
X913803Y1475812D01*
X925815Y1463800D01*
X941509Y1457299D01*
X943652D01*
Y1493649D01*
D02*
G37*
G36*
X742700D02*
X706350D01*
Y1457299D01*
X708494D01*
X724188Y1463800D01*
X736199Y1475812D01*
X742700Y1491506D01*
Y1493649D01*
D02*
G37*
G36*
X693650D02*
X657300D01*
Y1491506D01*
X663801Y1475812D01*
X675813Y1463800D01*
X691507Y1457299D01*
X693650D01*
Y1493649D01*
D02*
G37*
G36*
X2453576Y1372704D02*
X2434434D01*
X2415944Y1367750D01*
X2399366Y1358179D01*
X2385830Y1344643D01*
X2376259Y1328066D01*
X2371305Y1309576D01*
Y1290433D01*
X2376259Y1271943D01*
X2385830Y1255366D01*
X2399366Y1241830D01*
X2415944Y1232259D01*
X2434434Y1227305D01*
X2453576D01*
X2472066Y1232259D01*
X2488643Y1241830D01*
X2502179Y1255366D01*
X2511750Y1271943D01*
X2516705Y1290433D01*
Y1309576D01*
X2511750Y1328066D01*
X2502179Y1344643D01*
X2488643Y1358179D01*
X2472066Y1367750D01*
X2453576Y1372704D01*
D02*
G37*
G36*
X1965576D02*
X1946433D01*
X1927944Y1367750D01*
X1911366Y1358179D01*
X1897830Y1344643D01*
X1888259Y1328066D01*
X1883305Y1309576D01*
Y1290433D01*
X1888259Y1271943D01*
X1897830Y1255366D01*
X1911366Y1241830D01*
X1927944Y1232259D01*
X1946433Y1227305D01*
X1965576D01*
X1984066Y1232259D01*
X2000643Y1241830D01*
X2014179Y1255366D01*
X2023750Y1271943D01*
X2028705Y1290433D01*
Y1309576D01*
X2023750Y1328066D01*
X2014179Y1344643D01*
X2000643Y1358179D01*
X1984066Y1367750D01*
X1965576Y1372704D01*
D02*
G37*
G36*
X13087910Y2639957D02*
X13070007D01*
X13053468Y2633106D01*
X13040810Y2620448D01*
X13033958Y2603908D01*
Y2586007D01*
X13040521Y2570166D01*
Y2471042D01*
X13040521Y2471041D01*
X13043446Y2456331D01*
X13051779Y2443861D01*
X13340221Y2155420D01*
Y891895D01*
X13296696D01*
Y2066717D01*
X13296696Y2066719D01*
X13293771Y2081428D01*
X13285439Y2093899D01*
X13285437Y2093900D01*
X12964458Y2414880D01*
Y2421928D01*
X12957607Y2438467D01*
X12944948Y2451126D01*
X12928407Y2457977D01*
X12910507D01*
X12893967Y2451126D01*
X12881310Y2438467D01*
X12874458Y2421928D01*
Y2404026D01*
X12881310Y2387486D01*
X12893967Y2374828D01*
X12897076Y2373540D01*
X13219820Y2050797D01*
Y891895D01*
X13175558D01*
Y726495D01*
X13340958D01*
Y808974D01*
X13345187Y811822D01*
X13353658Y813877D01*
X13380763Y786771D01*
X13380765Y786770D01*
X13393236Y778437D01*
X13407945Y775511D01*
X13407947Y775512D01*
X13432208D01*
X13442079Y758416D01*
X13457475Y743019D01*
X13476334Y732131D01*
X13497366Y726495D01*
X13519144D01*
X13540176Y732131D01*
X13559035Y743019D01*
X13574431Y758416D01*
X13585320Y777274D01*
X13590955Y798308D01*
Y820083D01*
X13585320Y841116D01*
X13574431Y859974D01*
X13559035Y875372D01*
X13540176Y886259D01*
X13519144Y891895D01*
X13497366D01*
X13476334Y886259D01*
X13457475Y875372D01*
X13442079Y859974D01*
X13437698Y852389D01*
X13423866D01*
X13417097Y859158D01*
Y2171340D01*
X13417097Y2171341D01*
X13414172Y2186051D01*
X13405840Y2198522D01*
X13405840Y2198522D01*
X13117398Y2486963D01*
Y2570166D01*
X13123959Y2586007D01*
Y2603908D01*
X13117108Y2620448D01*
X13104449Y2633106D01*
X13087910Y2639957D01*
D02*
G37*
G36*
X5009086Y891895D02*
X5004548D01*
Y815545D01*
X5080898D01*
Y820083D01*
X5075262Y841116D01*
X5064375Y859974D01*
X5048977Y875372D01*
X5030119Y886259D01*
X5009086Y891895D01*
D02*
G37*
G36*
X4991848D02*
X4987311D01*
X4966277Y886259D01*
X4947419Y875372D01*
X4932022Y859974D01*
X4921134Y841116D01*
X4915498Y820083D01*
Y815545D01*
X4991848D01*
Y891895D01*
D02*
G37*
G36*
X886172Y842700D02*
X884028D01*
Y806350D01*
X920378D01*
Y808494D01*
X913877Y824188D01*
X901866Y836199D01*
X886172Y842700D01*
D02*
G37*
G36*
X871328D02*
X869185D01*
X853491Y836199D01*
X841479Y824188D01*
X834978Y808494D01*
Y806350D01*
X871328D01*
Y842700D01*
D02*
G37*
G36*
X920378Y793650D02*
X884028D01*
Y757300D01*
X886172D01*
X901866Y763801D01*
X913877Y775813D01*
X920378Y791507D01*
Y793650D01*
D02*
G37*
G36*
X871328D02*
X834978D01*
Y791507D01*
X841479Y775813D01*
X853491Y763801D01*
X869185Y757300D01*
X871328D01*
Y793650D01*
D02*
G37*
G36*
X4749090Y2545977D02*
X4731188D01*
X4714649Y2539126D01*
X4701990Y2526468D01*
X4695139Y2509928D01*
Y2492027D01*
X4701990Y2475487D01*
X4714649Y2462828D01*
X4731188Y2455978D01*
X4749090D01*
X4764931Y2462539D01*
X10003272D01*
X11628276Y837535D01*
Y727233D01*
X11493929D01*
X9797144Y2424018D01*
X9784674Y2432350D01*
X9769964Y2435276D01*
X9769963Y2435276D01*
X4876691D01*
X4860850Y2441837D01*
X4842948D01*
X4826409Y2434986D01*
X4813750Y2422328D01*
X4806899Y2405788D01*
Y2387887D01*
X4813750Y2371347D01*
X4826409Y2358688D01*
X4842948Y2351838D01*
X4860850D01*
X4876691Y2358399D01*
X9754042D01*
X11210757Y901685D01*
X11204183Y890298D01*
X11198223Y891895D01*
X11176447D01*
X11155414Y886259D01*
X11136556Y875372D01*
X11121159Y859974D01*
X11110271Y841116D01*
X11104635Y820083D01*
Y798308D01*
X11110271Y777274D01*
X11121159Y758416D01*
X11136556Y743019D01*
X11155414Y732131D01*
X11176447Y726495D01*
X11198223D01*
X11219256Y732131D01*
X11238114Y743019D01*
X11253511Y758416D01*
X11264399Y777274D01*
X11270035Y798308D01*
Y820083D01*
X11268438Y826043D01*
X11279825Y832617D01*
X11450827Y661615D01*
X11450827Y661614D01*
X11463298Y653282D01*
X11478008Y650356D01*
X11840571D01*
X11840572Y650355D01*
X11855282Y653282D01*
X11867752Y661614D01*
X11936322Y730183D01*
X11950086Y726495D01*
X11971861D01*
X11992894Y732131D01*
X12011752Y743019D01*
X12027150Y758416D01*
X12038037Y777274D01*
X12043673Y798308D01*
Y820083D01*
X12038037Y841116D01*
X12027150Y859974D01*
X12011752Y875372D01*
X11992894Y886259D01*
X11971861Y891895D01*
X11950086D01*
X11929052Y886259D01*
X11910194Y875372D01*
X11894797Y859974D01*
X11883909Y841116D01*
X11878273Y820083D01*
Y798308D01*
X11881961Y784544D01*
X11824650Y727233D01*
X11793676D01*
Y891895D01*
X11682637D01*
X10046374Y2528158D01*
X10033904Y2536490D01*
X10019194Y2539416D01*
X10019193Y2539416D01*
X4764931D01*
X4749090Y2545977D01*
D02*
G37*
G36*
X14292786Y891895D02*
X14271011D01*
X14249977Y886259D01*
X14231119Y875372D01*
X14215723Y859974D01*
X14204834Y841116D01*
X14199197Y820083D01*
Y798308D01*
X14204834Y777274D01*
X14215723Y758416D01*
X14231119Y743019D01*
X14249977Y732131D01*
X14271011Y726495D01*
X14292786D01*
X14313818Y732131D01*
X14332677Y743019D01*
X14348074Y758416D01*
X14358961Y777274D01*
X14364598Y798308D01*
Y820083D01*
X14358961Y841116D01*
X14348074Y859974D01*
X14332677Y875372D01*
X14313818Y886259D01*
X14292786Y891895D01*
D02*
G37*
G36*
X14114601D02*
X13949200D01*
Y726495D01*
X14114601D01*
Y891895D01*
D02*
G37*
G36*
X12745504D02*
X12723729D01*
X12702696Y886259D01*
X12683838Y875372D01*
X12668440Y859974D01*
X12657553Y841116D01*
X12651917Y820083D01*
Y798308D01*
X12657553Y777274D01*
X12668440Y758416D01*
X12683838Y743019D01*
X12702696Y732131D01*
X12723729Y726495D01*
X12745504D01*
X12766538Y732131D01*
X12785396Y743019D01*
X12800793Y758416D01*
X12811681Y777274D01*
X12817317Y798308D01*
Y820083D01*
X12811681Y841116D01*
X12800793Y859974D01*
X12785396Y875372D01*
X12766538Y886259D01*
X12745504Y891895D01*
D02*
G37*
G36*
X12567314D02*
X12401915D01*
Y726495D01*
X12567314D01*
Y891895D01*
D02*
G37*
G36*
X11020033D02*
X10854633D01*
Y726495D01*
X11020033D01*
Y891895D01*
D02*
G37*
G36*
X10424579D02*
X10402804D01*
X10381771Y886259D01*
X10362913Y875372D01*
X10347515Y859974D01*
X10336628Y841116D01*
X10330992Y820083D01*
Y798308D01*
X10336628Y777274D01*
X10347515Y758416D01*
X10362913Y743019D01*
X10381771Y732131D01*
X10402804Y726495D01*
X10424579D01*
X10445613Y732131D01*
X10464471Y743019D01*
X10479868Y758416D01*
X10490756Y777274D01*
X10496392Y798308D01*
Y820083D01*
X10490756Y841116D01*
X10479868Y859974D01*
X10464471Y875372D01*
X10445613Y886259D01*
X10424579Y891895D01*
D02*
G37*
G36*
X10246389D02*
X10080990D01*
Y726495D01*
X10246389D01*
Y891895D01*
D02*
G37*
G36*
X9650936D02*
X9629161D01*
X9608127Y886259D01*
X9589269Y875372D01*
X9573872Y859974D01*
X9562984Y841116D01*
X9557348Y820083D01*
Y798308D01*
X9562984Y777274D01*
X9573872Y758416D01*
X9589269Y743019D01*
X9608127Y732131D01*
X9629161Y726495D01*
X9650936D01*
X9671969Y732131D01*
X9690827Y743019D01*
X9706225Y758416D01*
X9717112Y777274D01*
X9722748Y798308D01*
Y820083D01*
X9717112Y841116D01*
X9706225Y859974D01*
X9690827Y875372D01*
X9671969Y886259D01*
X9650936Y891895D01*
D02*
G37*
G36*
X9472751D02*
X9307351D01*
Y726495D01*
X9472751D01*
Y891895D01*
D02*
G37*
G36*
X8877298D02*
X8855522D01*
X8834489Y886259D01*
X8815631Y875372D01*
X8800234Y859974D01*
X8789346Y841116D01*
X8783710Y820083D01*
Y798308D01*
X8789346Y777274D01*
X8800234Y758416D01*
X8815631Y743019D01*
X8834489Y732131D01*
X8855522Y726495D01*
X8877298D01*
X8898331Y732131D01*
X8917189Y743019D01*
X8932586Y758416D01*
X8943474Y777274D01*
X8949110Y798308D01*
Y820083D01*
X8943474Y841116D01*
X8932586Y859974D01*
X8917189Y875372D01*
X8898331Y886259D01*
X8877298Y891895D01*
D02*
G37*
G36*
X8699108D02*
X8533708D01*
Y726495D01*
X8699108D01*
Y891895D01*
D02*
G37*
G36*
X8103654D02*
X8081879D01*
X8060846Y886259D01*
X8041988Y875372D01*
X8026590Y859974D01*
X8015703Y841116D01*
X8010067Y820083D01*
Y798308D01*
X8015703Y777274D01*
X8026590Y758416D01*
X8041988Y743019D01*
X8060846Y732131D01*
X8081879Y726495D01*
X8103654D01*
X8124688Y732131D01*
X8143546Y743019D01*
X8158943Y758416D01*
X8169831Y777274D01*
X8175467Y798308D01*
Y820083D01*
X8169831Y841116D01*
X8158943Y859974D01*
X8143546Y875372D01*
X8124688Y886259D01*
X8103654Y891895D01*
D02*
G37*
G36*
X7925470D02*
X7760070D01*
Y726495D01*
X7925470D01*
Y891895D01*
D02*
G37*
G36*
X7330011D02*
X7308236D01*
X7287202Y886259D01*
X7268344Y875372D01*
X7252947Y859974D01*
X7242059Y841116D01*
X7236423Y820083D01*
Y798308D01*
X7242059Y777274D01*
X7252947Y758416D01*
X7268344Y743019D01*
X7287202Y732131D01*
X7308236Y726495D01*
X7330011D01*
X7351044Y732131D01*
X7369902Y743019D01*
X7385300Y758416D01*
X7396187Y777274D01*
X7401823Y798308D01*
Y820083D01*
X7396187Y841116D01*
X7385300Y859974D01*
X7369902Y875372D01*
X7351044Y886259D01*
X7330011Y891895D01*
D02*
G37*
G36*
X7151826D02*
X6986426D01*
Y726495D01*
X7151826D01*
Y891895D01*
D02*
G37*
G36*
X6556368D02*
X6534592D01*
X6513559Y886259D01*
X6494701Y875372D01*
X6479304Y859974D01*
X6468416Y841116D01*
X6462780Y820083D01*
Y798308D01*
X6468416Y777274D01*
X6479304Y758416D01*
X6494701Y743019D01*
X6513559Y732131D01*
X6534592Y726495D01*
X6556368D01*
X6577401Y732131D01*
X6596259Y743019D01*
X6611656Y758416D01*
X6622544Y777274D01*
X6628180Y798308D01*
Y820083D01*
X6622544Y841116D01*
X6611656Y859974D01*
X6596259Y875372D01*
X6577401Y886259D01*
X6556368Y891895D01*
D02*
G37*
G36*
X6378183D02*
X6212783D01*
Y726495D01*
X6378183D01*
Y891895D01*
D02*
G37*
G36*
X5782729D02*
X5760954D01*
X5739921Y886259D01*
X5721063Y875372D01*
X5705665Y859974D01*
X5694778Y841116D01*
X5689142Y820083D01*
Y798308D01*
X5694778Y777274D01*
X5705665Y758416D01*
X5721063Y743019D01*
X5739921Y732131D01*
X5760954Y726495D01*
X5782729D01*
X5803763Y732131D01*
X5822621Y743019D01*
X5838018Y758416D01*
X5848906Y777274D01*
X5854542Y798308D01*
Y820083D01*
X5848906Y841116D01*
X5838018Y859974D01*
X5822621Y875372D01*
X5803763Y886259D01*
X5782729Y891895D01*
D02*
G37*
G36*
X5604545D02*
X5439145D01*
Y726495D01*
X5604545D01*
Y891895D01*
D02*
G37*
G36*
X5080898Y802845D02*
X5004548D01*
Y726495D01*
X5009086D01*
X5030119Y732131D01*
X5048977Y743019D01*
X5064375Y758416D01*
X5075262Y777274D01*
X5080898Y798308D01*
Y802845D01*
D02*
G37*
G36*
X4991848D02*
X4915498D01*
Y798308D01*
X4921134Y777274D01*
X4932022Y758416D01*
X4947419Y743019D01*
X4966277Y732131D01*
X4987311Y726495D01*
X4991848D01*
Y802845D01*
D02*
G37*
G36*
X4830901Y891895D02*
X4665501D01*
Y726495D01*
X4830901D01*
Y891895D01*
D02*
G37*
G36*
X16267238Y424999D02*
X16232767D01*
X16198956Y418274D01*
X16167108Y405082D01*
X16138446Y385930D01*
X16114072Y361555D01*
X16094919Y332893D01*
X16081728Y301045D01*
X16075002Y267235D01*
Y232763D01*
X16081728Y198953D01*
X16094919Y167105D01*
X16114072Y138443D01*
X16138446Y114068D01*
X16167108Y94916D01*
X16198956Y81724D01*
X16232767Y74999D01*
X16267238D01*
X16301048Y81724D01*
X16332896Y94916D01*
X16361559Y114068D01*
X16385933Y138443D01*
X16405086Y167105D01*
X16418277Y198953D01*
X16425002Y232763D01*
Y267235D01*
X16418277Y301045D01*
X16405086Y332893D01*
X16385933Y361555D01*
X16361559Y385930D01*
X16332896Y405082D01*
X16301048Y418274D01*
X16267238Y424999D01*
D02*
G37*
G36*
X267234D02*
X232763D01*
X198953Y418274D01*
X167105Y405082D01*
X138442Y385930D01*
X114067Y361555D01*
X94915Y332893D01*
X81724Y301045D01*
X74999Y267235D01*
Y232763D01*
X81724Y198953D01*
X94915Y167105D01*
X114067Y138443D01*
X138442Y114068D01*
X167105Y94916D01*
X198953Y81724D01*
X232763Y74999D01*
X267234D01*
X301044Y81724D01*
X332892Y94916D01*
X361555Y114068D01*
X385930Y138443D01*
X405081Y167105D01*
X418273Y198953D01*
X424998Y232763D01*
Y267235D01*
X418273Y301045D01*
X405081Y332893D01*
X385930Y361555D01*
X361555Y385930D01*
X332892Y405082D01*
X301044Y418274D01*
X267234Y424999D01*
D02*
G37*
%LPD*%
D16*
X3930999Y3700000D02*
X7403321D01*
X3881000Y3750000D02*
X3930999Y3700000D01*
X7403321D02*
X11018999Y3700000D01*
X11318998Y3999999D01*
X15268999Y4150000D02*
X15419000Y3999999D01*
X11318998D02*
X11468999Y4150000D01*
X15268999D01*
X12915729Y2409248D02*
X13258258Y2066719D01*
X13078960Y2471041D02*
X13378659Y2171341D01*
X13078960Y2471041D02*
Y2594957D01*
X13378659Y843236D02*
Y2171341D01*
X4851899Y2396837D02*
X9769964D01*
X11478008Y688794D01*
X12915729Y2409248D02*
X12919458Y2412977D01*
X11478008Y688794D02*
X11840572D01*
X11960973Y809195D01*
X4740139Y2500977D02*
X10019194D01*
X11710976Y809195D01*
X13378659Y843236D02*
X13407945Y813950D01*
X13503500D02*
X13508255Y809195D01*
X13407945Y813950D02*
X13503500D01*
X13258258Y809195D02*
Y2066719D01*
D18*
X4146638Y3561900D02*
X4257600Y3450937D01*
X2606204Y3600797D02*
X3834900D01*
X3891484Y3604600D02*
X7060156D01*
X3851411Y3644672D02*
X3891484Y3604600D01*
X7077843Y3647300D02*
X7125143Y3600000D01*
X3869098Y3687372D02*
X3909170Y3647300D01*
X7077843D01*
X3062628Y3687372D02*
X3869098D01*
X3044941Y3644672D02*
X3851411D01*
X7060156Y3604600D02*
X7107456Y3557300D01*
X3834900Y3600797D02*
X3873797Y3561900D01*
X4146638D01*
X7107456Y3557300D02*
X11017687D01*
X7125143Y3600000D02*
X11000000D01*
X11296299Y3896299D01*
X2362903Y4387097D02*
X3062628Y3687372D01*
X3039613Y3650000D02*
X3044941Y3644672D01*
X2345216Y4344397D02*
X3039613Y3650000D01*
X11545721Y3900651D02*
X11571372Y3875001D01*
X2224223Y4610860D02*
X2260702D01*
X2077349Y4575674D02*
X2102999Y4601325D01*
X2077349Y4455221D02*
X2102999Y4429571D01*
X2077349Y4455221D02*
Y4575674D01*
X2102999Y4601325D02*
Y5162103D01*
X2248399Y4997797D02*
X2351099Y4895097D01*
X11296299Y3896299D02*
X11384212D01*
X11388564Y3900651D01*
X2133826Y4459132D02*
X2205860Y4387097D01*
X11388564Y3900651D02*
X11545721D01*
X2351099Y4701258D02*
Y4895097D01*
X2260702Y4610860D02*
X2351099Y4701258D01*
X11571372Y3875001D02*
X11578295D01*
X2205860Y4387097D02*
X2362903D01*
X2133826Y4520463D02*
X2224223Y4610860D01*
X2133826Y4459132D02*
Y4520463D01*
X2102999Y5162103D02*
X2103673Y5164822D01*
X2102999Y4429571D02*
X2188173Y4344397D01*
X2190649Y5251797D02*
X2248399D01*
X2103673Y5164822D02*
X2190649Y5251797D01*
X11792248Y3999999D02*
X11826998D01*
X11592249Y3800000D02*
X11792248Y3999999D01*
X11260387Y3800000D02*
X11592249D01*
X2188173Y4344397D02*
X2345216D01*
X11017687Y3557300D02*
X11260387Y3800000D01*
X2967687Y3842700D02*
X7455428D01*
X2342447Y4467939D02*
X2967687Y3842700D01*
X2248399Y4489797D02*
X2270258Y4467939D01*
X2342447D01*
X7473002Y3860274D02*
Y3999999D01*
X7455428Y3842700D02*
X7473002Y3860274D01*
X2434922Y3478877D02*
X4008619D01*
X4305799Y3181697D01*
X4257600Y3450937D02*
X11676061D01*
X1486399Y3219797D02*
X2005997D01*
X3254697Y3181697D02*
X3373000Y3300001D01*
X2497319Y3181697D02*
X3254697D01*
X2342379Y3336637D02*
X2497319Y3181697D01*
X2122837Y3336637D02*
X2342379D01*
X2005997Y3219797D02*
X2122837Y3336637D01*
X1370997Y2827200D02*
Y3289815D01*
Y2827200D02*
X1486399Y2711797D01*
X1370997Y3289815D02*
X1427979Y3346797D01*
X2324599Y3589200D02*
X2434922Y3478877D01*
X1427979Y3346797D02*
X1953759D01*
X2196162Y3589200D01*
X2324599D01*
X4305799Y3181697D02*
X7354699D01*
X7473002Y3300001D01*
X2363802Y3843200D02*
X2606204Y3600797D01*
X1315595Y2628602D02*
X1486399Y2457797D01*
X1315595Y2628602D02*
Y3496033D01*
X1420359Y3600797D01*
X1890595D01*
X2132997Y3843200D01*
X2363802D01*
X11676061Y3450937D02*
X11826998Y3300001D01*
X15927000Y3999999D02*
Y4299999D01*
X15673000Y3999999D02*
Y4299999D01*
X10836139Y2589877D02*
X10901189Y2654927D01*
X7527002Y3100001D02*
X7727002Y3300001D01*
X1620603Y3100001D02*
X7527002D01*
X1486399Y2965797D02*
X1620603Y3100001D01*
X14467201Y5759797D02*
X15927000Y4299999D01*
X2248399Y5759797D02*
X14467201D01*
X2248399Y5505797D02*
X2392600Y5649998D01*
X14323001D01*
X15673000Y4299999D01*
X10901189Y2654927D02*
X10904719Y2651396D01*
X2248399Y2711797D02*
X15338797D01*
X15927000Y3300001D01*
X2248399Y2965797D02*
X15338797D01*
X15673000Y3300001D01*
X2380479Y2589877D02*
X10836139D01*
X2248399Y2457797D02*
X2380479Y2589877D01*
D19*
X7403321Y3700000D02*
D03*
X3881000Y3750000D02*
D03*
X454921Y4294929D02*
D03*
X1905002Y1799998D02*
D03*
X2449999D02*
D03*
X454992Y4870000D02*
D03*
X455784Y3753065D02*
D03*
X462698Y3198340D02*
D03*
X877678Y800000D02*
D03*
X775001Y2195004D02*
D03*
X700000Y1499999D02*
D03*
X950002D02*
D03*
X11578295Y3875001D02*
D03*
X10904719Y2651396D02*
D03*
X4851899Y2396837D02*
D03*
X12919458Y2412977D02*
D03*
X4740139Y2500977D02*
D03*
X13078960Y2594957D02*
D03*
D20*
X3119000Y3300001D02*
D03*
X3373000D02*
D03*
X3627000D02*
D03*
X3472999Y2150000D02*
D03*
X15673000Y3999999D02*
D03*
X15927000D02*
D03*
X16181000D02*
D03*
X15927000Y3300001D02*
D03*
X15673000D02*
D03*
X15419000D02*
D03*
X11826998D02*
D03*
X11572998D02*
D03*
X11318998D02*
D03*
X11572998Y3999999D02*
D03*
X11826998D02*
D03*
X12080998D02*
D03*
X7473002D02*
D03*
X7727002D02*
D03*
X7981002D02*
D03*
X7727002Y3300001D02*
D03*
X7473002D02*
D03*
X7219002D02*
D03*
X3373000Y3999999D02*
D03*
X3627000D02*
D03*
X3881000D02*
D03*
X15827000Y5149999D02*
D03*
X11726999D02*
D03*
X7627002D02*
D03*
X3527000D02*
D03*
X15773000Y2150000D02*
D03*
X11672998D02*
D03*
X7573002D02*
D03*
D21*
X3881000Y3300001D02*
D03*
X3726999Y2150000D02*
D03*
X15419000Y3999999D02*
D03*
X16181000Y3300001D02*
D03*
X12080998D02*
D03*
X11318998Y3999999D02*
D03*
X7219002D02*
D03*
X7981002Y3300001D02*
D03*
X3119000Y3999999D02*
D03*
X15573001Y5149999D02*
D03*
X11472999D02*
D03*
X7373002D02*
D03*
X3273000D02*
D03*
X16027000Y2150000D02*
D03*
X11926998D02*
D03*
X7827002D02*
D03*
D22*
X1956005Y1300005D02*
D03*
X2444005D02*
D03*
D23*
X10163690Y809195D02*
D03*
X13258258D02*
D03*
X4748201D02*
D03*
X6295483D02*
D03*
X5521845D02*
D03*
X7069126D02*
D03*
X7842770D02*
D03*
X8616408D02*
D03*
X9390051D02*
D03*
X12484615D02*
D03*
X11710976D02*
D03*
X10937333D02*
D03*
X14031902D02*
D03*
D24*
X10413692D02*
D03*
X13508255D02*
D03*
X4998198D02*
D03*
X6545480D02*
D03*
X5771842D02*
D03*
X7319123D02*
D03*
X8092767D02*
D03*
X8866410D02*
D03*
X9640048D02*
D03*
X12734617D02*
D03*
X11960973D02*
D03*
X11187335D02*
D03*
X14281898D02*
D03*
D25*
X1486399Y4235797D02*
D03*
X2248399Y3727797D02*
D03*
Y3981797D02*
D03*
X1486399D02*
D03*
X2248399Y4235797D02*
D03*
X1486399Y3473797D02*
D03*
Y3727797D02*
D03*
Y4489797D02*
D03*
Y3219797D02*
D03*
Y2965797D02*
D03*
Y2711797D02*
D03*
Y2457797D02*
D03*
X2248399D02*
D03*
Y2711797D02*
D03*
Y2965797D02*
D03*
Y3219797D02*
D03*
Y3473797D02*
D03*
Y4489797D02*
D03*
Y4743797D02*
D03*
Y4997797D02*
D03*
Y5251797D02*
D03*
Y5505797D02*
D03*
Y5759797D02*
D03*
X1486399Y5505797D02*
D03*
Y5251797D02*
D03*
Y4997797D02*
D03*
Y4743797D02*
D03*
D26*
Y5759797D02*
D03*
%TF.MD5,2126a21217d7dbcb86d05cfc22f3b9f2*%
M02*
