%TF.GenerationSoftware,Altium Limited,Altium Designer,24.6.1 (21)*%
G04 Layer_Color=0*
%FSLAX45Y45*%
%MOMM*%
%TF.SameCoordinates,9A433DDD-85E4-4EE4-B99C-1E68303A8431*%
%TF.FilePolarity,Positive*%
%TF.FileFunction,Plated,1,2,PTH,Drill*%
%TF.Part,Single*%
G01*
G75*
%TA.AperFunction,OtherDrill,Pad Free-25 (74.033mm,37mm)*%
%ADD45C,0.40000*%
%TA.AperFunction,OtherDrill,Pad Free-24 (38.81mm,37.5mm)*%
%ADD46C,0.40000*%
%TA.AperFunction,ComponentDrill*%
%ADD47C,1.02000*%
%ADD48C,0.70000*%
%TA.AperFunction,OtherDrill,Pad Free-19 (4.549mm,42.949mm)*%
%ADD49C,0.40000*%
%TA.AperFunction,OtherDrill,Pad Free-22 (19.05mm,18mm)*%
%ADD50C,0.40000*%
%TA.AperFunction,OtherDrill,Pad Free-21 (24.5mm,18mm)*%
%ADD51C,0.40000*%
%TA.AperFunction,OtherDrill,Pad Free-20 (4.55mm,48.7mm)*%
%ADD52C,0.40000*%
%TA.AperFunction,OtherDrill,Pad Free-18 (4.558mm,37.531mm)*%
%ADD53C,0.40000*%
%TA.AperFunction,OtherDrill,Pad Free-17 (4.627mm,31.983mm)*%
%ADD54C,0.40000*%
%TA.AperFunction,OtherDrill,Pad Free-16 (8.777mm,8mm)*%
%ADD55C,0.40000*%
%TA.AperFunction,OtherDrill,Pad Free-15 (7.75mm,21.95mm)*%
%ADD56C,0.40000*%
%TA.AperFunction,OtherDrill,Pad Free-14 (7mm,15mm)*%
%ADD57C,0.40000*%
%TA.AperFunction,OtherDrill,Pad Free-13 (9.5mm,15mm)*%
%ADD58C,0.40000*%
%TA.AperFunction,ComponentDrill*%
%ADD59C,0.90000*%
%TA.AperFunction,ViaDrill,NotFilled*%
%ADD60C,0.30000*%
%ADD61C,0.40000*%
D45*
X7403321Y3700000D02*
D03*
D46*
X3881000Y3750000D02*
D03*
D47*
X3119000Y3300001D02*
D03*
X3373000D02*
D03*
X3881000D02*
D03*
X3627000D02*
D03*
X3472999Y2150000D02*
D03*
X3726999D02*
D03*
X15673000Y3999999D02*
D03*
X15419000D02*
D03*
X15927000D02*
D03*
X16181000D02*
D03*
X15927000Y3300001D02*
D03*
X16181000D02*
D03*
X15673000D02*
D03*
X15419000D02*
D03*
X11826998D02*
D03*
X12080998D02*
D03*
X11572998D02*
D03*
X11318998D02*
D03*
X11572998Y3999999D02*
D03*
X11318998D02*
D03*
X11826998D02*
D03*
X12080998D02*
D03*
X7473002D02*
D03*
X7219002D02*
D03*
X7727002D02*
D03*
X7981002D02*
D03*
X7727002Y3300001D02*
D03*
X7981002D02*
D03*
X7473002D02*
D03*
X7219002D02*
D03*
X3373000Y3999999D02*
D03*
X3119000D02*
D03*
X3627000D02*
D03*
X3881000D02*
D03*
X15573001Y5149999D02*
D03*
X15827000D02*
D03*
X11472999D02*
D03*
X11726999D02*
D03*
X7373002D02*
D03*
X7627002D02*
D03*
X3273000D02*
D03*
X3527000D02*
D03*
X16027000Y2150000D02*
D03*
X15773000D02*
D03*
X11926998D02*
D03*
X11672998D02*
D03*
X7827002D02*
D03*
X7573002D02*
D03*
D48*
X1956005Y1300005D02*
D03*
X2444005D02*
D03*
D49*
X454921Y4294929D02*
D03*
D50*
X1905002Y1799998D02*
D03*
D51*
X2449999D02*
D03*
D52*
X454992Y4870000D02*
D03*
D53*
X455784Y3753065D02*
D03*
D54*
X462698Y3198340D02*
D03*
D55*
X877678Y800000D02*
D03*
D56*
X775001Y2195004D02*
D03*
D57*
X700000Y1499999D02*
D03*
D58*
X950002D02*
D03*
D59*
X10163690Y809195D02*
D03*
X10413692D02*
D03*
X13258258D02*
D03*
X13508255D02*
D03*
X4748201D02*
D03*
X4998198D02*
D03*
X6295483D02*
D03*
X6545480D02*
D03*
X5771842D02*
D03*
X5521845D02*
D03*
X7319123D02*
D03*
X7069126D02*
D03*
X8092767D02*
D03*
X7842770D02*
D03*
X8866410D02*
D03*
X8616408D02*
D03*
X9640048D02*
D03*
X9390051D02*
D03*
X12734617D02*
D03*
X12484615D02*
D03*
X11960973D02*
D03*
X11710976D02*
D03*
X11187335D02*
D03*
X10937333D02*
D03*
X14281898D02*
D03*
X14031902D02*
D03*
X1486399Y4235797D02*
D03*
X2248399Y3727797D02*
D03*
Y3981797D02*
D03*
X1486399D02*
D03*
X2248399Y4235797D02*
D03*
X1486399Y3473797D02*
D03*
Y3727797D02*
D03*
Y4489797D02*
D03*
Y3219797D02*
D03*
Y2965797D02*
D03*
Y2711797D02*
D03*
Y2457797D02*
D03*
X2248399D02*
D03*
Y2711797D02*
D03*
Y2965797D02*
D03*
Y3219797D02*
D03*
Y3473797D02*
D03*
Y4489797D02*
D03*
Y4743797D02*
D03*
Y4997797D02*
D03*
Y5251797D02*
D03*
Y5505797D02*
D03*
Y5759797D02*
D03*
X1486399Y5505797D02*
D03*
Y5251797D02*
D03*
Y4997797D02*
D03*
Y4743797D02*
D03*
Y5759797D02*
D03*
D60*
X11578295Y3875001D02*
D03*
D61*
X10904719Y2651396D02*
D03*
X4851899Y2396837D02*
D03*
X12919458Y2412977D02*
D03*
X4740139Y2500977D02*
D03*
X13078960Y2594957D02*
D03*
%TF.MD5,33c798e67dd9eb82c7383ffbf6a880c7*%
M02*
